solid OpenSCAD_Model
  facet normal -1 0 0
    outer loop
      vertex -10 -2.5 2.5
      vertex -10 2.5 22.5
      vertex -10 2.5 2.5
    endloop
  endfacet
  facet normal -1 -0 0
    outer loop
      vertex -10 2.5 22.5
      vertex -10 -2.5 2.5
      vertex -10 -2.5 22.5
    endloop
  endfacet
  facet normal 0 -1 0
    outer loop
      vertex -10 -2.5 22.5
      vertex -6 -2.5 18.5
      vertex 10 -2.5 22.5
    endloop
  endfacet
  facet normal 0 -1 0
    outer loop
      vertex -10 -2.5 22.5
      vertex -6 -2.5 6.5
      vertex -6 -2.5 18.5
    endloop
  endfacet
  facet normal 0 -1 -0
    outer loop
      vertex -6 -2.5 6.5
      vertex -10 -2.5 2.5
      vertex 6 -2.5 6.5
    endloop
  endfacet
  facet normal 0 -1 0
    outer loop
      vertex -10 -2.5 2.5
      vertex -6 -2.5 6.5
      vertex -10 -2.5 22.5
    endloop
  endfacet
  facet normal 0 -1 0
    outer loop
      vertex 6 -2.5 18.5
      vertex 10 -2.5 22.5
      vertex -6 -2.5 18.5
    endloop
  endfacet
  facet normal 0 -1 0
    outer loop
      vertex 6 -2.5 6.5
      vertex 10 -2.5 22.5
      vertex 6 -2.5 18.5
    endloop
  endfacet
  facet normal 0 -1 0
    outer loop
      vertex 6 -2.5 6.5
      vertex 10 -2.5 2.5
      vertex 10 -2.5 22.5
    endloop
  endfacet
  facet normal 0 -1 0
    outer loop
      vertex 10 -2.5 2.5
      vertex 6 -2.5 6.5
      vertex -10 -2.5 2.5
    endloop
  endfacet
  facet normal 1 -0 0
    outer loop
      vertex 10 -2.5 22.5
      vertex 10 2.5 2.5
      vertex 10 2.5 22.5
    endloop
  endfacet
  facet normal 1 0 0
    outer loop
      vertex 10 2.5 2.5
      vertex 10 -2.5 22.5
      vertex 10 -2.5 2.5
    endloop
  endfacet
  facet normal 0 1 0
    outer loop
      vertex 10 2.5 22.5
      vertex 6 2.5 18.5
      vertex -10 2.5 22.5
    endloop
  endfacet
  facet normal 0 1 0
    outer loop
      vertex 10 2.5 22.5
      vertex 6 2.5 6.5
      vertex 6 2.5 18.5
    endloop
  endfacet
  facet normal 0 1 0
    outer loop
      vertex 6 2.5 6.5
      vertex 10 2.5 2.5
      vertex -6 2.5 6.5
    endloop
  endfacet
  facet normal 0 1 -0
    outer loop
      vertex 10 2.5 2.5
      vertex 6 2.5 6.5
      vertex 10 2.5 22.5
    endloop
  endfacet
  facet normal 0 1 -0
    outer loop
      vertex -6 2.5 18.5
      vertex -10 2.5 22.5
      vertex 6 2.5 18.5
    endloop
  endfacet
  facet normal 0 1 -0
    outer loop
      vertex -6 2.5 6.5
      vertex -10 2.5 22.5
      vertex -6 2.5 18.5
    endloop
  endfacet
  facet normal 0 1 0
    outer loop
      vertex -6 2.5 6.5
      vertex -10 2.5 2.5
      vertex -10 2.5 22.5
    endloop
  endfacet
  facet normal 0 1 0
    outer loop
      vertex -10 2.5 2.5
      vertex -6 2.5 6.5
      vertex 10 2.5 2.5
    endloop
  endfacet
  facet normal 0 0 -1
    outer loop
      vertex 10 -2.5 2.5
      vertex 1.5 0 2.5
      vertex 10 2.5 2.5
    endloop
  endfacet
  facet normal 0 0 -1
    outer loop
      vertex 10 -2.5 2.5
      vertex 1.49794 -0.0785036 2.5
      vertex 1.5 0 2.5
    endloop
  endfacet
  facet normal 0 0 -1
    outer loop
      vertex 10 -2.5 2.5
      vertex 1.49178 -0.156793 2.5
      vertex 1.49794 -0.0785036 2.5
    endloop
  endfacet
  facet normal 0 0 -1
    outer loop
      vertex 10 -2.5 2.5
      vertex 1.48153 -0.234652 2.5
      vertex 1.49178 -0.156793 2.5
    endloop
  endfacet
  facet normal 0 0 -1
    outer loop
      vertex 10 -2.5 2.5
      vertex 1.46722 -0.311867 2.5
      vertex 1.48153 -0.234652 2.5
    endloop
  endfacet
  facet normal 0 0 -1
    outer loop
      vertex 10 -2.5 2.5
      vertex 1.44889 -0.388228 2.5
      vertex 1.46722 -0.311867 2.5
    endloop
  endfacet
  facet normal 0 0 -1
    outer loop
      vertex 10 -2.5 2.5
      vertex 1.42658 -0.463525 2.5
      vertex 1.44889 -0.388228 2.5
    endloop
  endfacet
  facet normal 0 0 -1
    outer loop
      vertex 10 -2.5 2.5
      vertex 1.40037 -0.537552 2.5
      vertex 1.42658 -0.463525 2.5
    endloop
  endfacet
  facet normal 0 0 -1
    outer loop
      vertex 10 -2.5 2.5
      vertex 1.37032 -0.610105 2.5
      vertex 1.40037 -0.537552 2.5
    endloop
  endfacet
  facet normal 0 0 -1
    outer loop
      vertex 10 -2.5 2.5
      vertex 1.33651 -0.680985 2.5
      vertex 1.37032 -0.610105 2.5
    endloop
  endfacet
  facet normal 0 0 -1
    outer loop
      vertex 10 -2.5 2.5
      vertex 1.29904 -0.749999 2.5
      vertex 1.33651 -0.680985 2.5
    endloop
  endfacet
  facet normal 0 0 -1
    outer loop
      vertex 10 -2.5 2.5
      vertex 1.25801 -0.816958 2.5
      vertex 1.29904 -0.749999 2.5
    endloop
  endfacet
  facet normal 0 0 -1
    outer loop
      vertex 10 -2.5 2.5
      vertex 1.21352 -0.881678 2.5
      vertex 1.25801 -0.816958 2.5
    endloop
  endfacet
  facet normal 0 0 -1
    outer loop
      vertex 10 -2.5 2.5
      vertex 1.16572 -0.94398 2.5
      vertex 1.21352 -0.881678 2.5
    endloop
  endfacet
  facet normal 0 0 -1
    outer loop
      vertex 10 -2.5 2.5
      vertex 1.11472 -1.0037 2.5
      vertex 1.16572 -0.94398 2.5
    endloop
  endfacet
  facet normal 0 0 -1
    outer loop
      vertex 10 -2.5 2.5
      vertex 1.06066 -1.06066 2.5
      vertex 1.11472 -1.0037 2.5
    endloop
  endfacet
  facet normal 0 0 -1
    outer loop
      vertex 10 -2.5 2.5
      vertex 1.0037 -1.11472 2.5
      vertex 1.06066 -1.06066 2.5
    endloop
  endfacet
  facet normal 0 0 -1
    outer loop
      vertex 10 -2.5 2.5
      vertex 0.94398 -1.16572 2.5
      vertex 1.0037 -1.11472 2.5
    endloop
  endfacet
  facet normal 0 0 -1
    outer loop
      vertex 10 -2.5 2.5
      vertex 0.881678 -1.21352 2.5
      vertex 0.94398 -1.16572 2.5
    endloop
  endfacet
  facet normal 0 0 -1
    outer loop
      vertex 10 -2.5 2.5
      vertex 0.816958 -1.25801 2.5
      vertex 0.881678 -1.21352 2.5
    endloop
  endfacet
  facet normal 0 0 -1
    outer loop
      vertex 10 -2.5 2.5
      vertex 0.75 -1.29904 2.5
      vertex 0.816958 -1.25801 2.5
    endloop
  endfacet
  facet normal 0 0 -1
    outer loop
      vertex 10 -2.5 2.5
      vertex 0.680985 -1.33651 2.5
      vertex 0.75 -1.29904 2.5
    endloop
  endfacet
  facet normal 0 0 -1
    outer loop
      vertex 10 -2.5 2.5
      vertex 0.610105 -1.37032 2.5
      vertex 0.680985 -1.33651 2.5
    endloop
  endfacet
  facet normal 0 0 -1
    outer loop
      vertex 10 -2.5 2.5
      vertex 0.537552 -1.40037 2.5
      vertex 0.610105 -1.37032 2.5
    endloop
  endfacet
  facet normal 0 0 -1
    outer loop
      vertex 10 -2.5 2.5
      vertex 0.463525 -1.42658 2.5
      vertex 0.537552 -1.40037 2.5
    endloop
  endfacet
  facet normal 0 0 -1
    outer loop
      vertex 10 -2.5 2.5
      vertex 0.388228 -1.44889 2.5
      vertex 0.463525 -1.42658 2.5
    endloop
  endfacet
  facet normal 0 0 -1
    outer loop
      vertex 10 -2.5 2.5
      vertex 0.311867 -1.46722 2.5
      vertex 0.388228 -1.44889 2.5
    endloop
  endfacet
  facet normal 0 0 -1
    outer loop
      vertex 10 -2.5 2.5
      vertex 0.234652 -1.48153 2.5
      vertex 0.311867 -1.46722 2.5
    endloop
  endfacet
  facet normal 0 0 -1
    outer loop
      vertex 10 -2.5 2.5
      vertex 0.156793 -1.49178 2.5
      vertex 0.234652 -1.48153 2.5
    endloop
  endfacet
  facet normal 0 0 -1
    outer loop
      vertex 10 -2.5 2.5
      vertex 0.0785036 -1.49794 2.5
      vertex 0.156793 -1.49178 2.5
    endloop
  endfacet
  facet normal 0 0 -1
    outer loop
      vertex 10 -2.5 2.5
      vertex 0 -1.5 2.5
      vertex 0.0785036 -1.49794 2.5
    endloop
  endfacet
  facet normal 0 0 -1
    outer loop
      vertex -10 -2.5 2.5
      vertex 0 -1.5 2.5
      vertex 10 -2.5 2.5
    endloop
  endfacet
  facet normal -0 0 -1
    outer loop
      vertex 0 -1.5 2.5
      vertex -10 -2.5 2.5
      vertex -0.0785036 -1.49794 2.5
    endloop
  endfacet
  facet normal -0 0 -1
    outer loop
      vertex -1.49794 -0.0785036 2.5
      vertex -10 -2.5 2.5
      vertex -1.5 0 2.5
    endloop
  endfacet
  facet normal -0 0 -1
    outer loop
      vertex -1.49178 -0.156793 2.5
      vertex -10 -2.5 2.5
      vertex -1.49794 -0.0785036 2.5
    endloop
  endfacet
  facet normal -0 0 -1
    outer loop
      vertex -1.48153 -0.234652 2.5
      vertex -10 -2.5 2.5
      vertex -1.49178 -0.156793 2.5
    endloop
  endfacet
  facet normal -0 0 -1
    outer loop
      vertex -1.46722 -0.311867 2.5
      vertex -10 -2.5 2.5
      vertex -1.48153 -0.234652 2.5
    endloop
  endfacet
  facet normal -0 0 -1
    outer loop
      vertex -1.44889 -0.388228 2.5
      vertex -10 -2.5 2.5
      vertex -1.46722 -0.311867 2.5
    endloop
  endfacet
  facet normal -0 0 -1
    outer loop
      vertex -1.42658 -0.463525 2.5
      vertex -10 -2.5 2.5
      vertex -1.44889 -0.388228 2.5
    endloop
  endfacet
  facet normal -0 0 -1
    outer loop
      vertex -1.40037 -0.537552 2.5
      vertex -10 -2.5 2.5
      vertex -1.42658 -0.463525 2.5
    endloop
  endfacet
  facet normal -0 0 -1
    outer loop
      vertex -1.37032 -0.610105 2.5
      vertex -10 -2.5 2.5
      vertex -1.40037 -0.537552 2.5
    endloop
  endfacet
  facet normal -0 0 -1
    outer loop
      vertex -1.33651 -0.680985 2.5
      vertex -10 -2.5 2.5
      vertex -1.37032 -0.610105 2.5
    endloop
  endfacet
  facet normal -0 0 -1
    outer loop
      vertex -1.29904 -0.749999 2.5
      vertex -10 -2.5 2.5
      vertex -1.33651 -0.680985 2.5
    endloop
  endfacet
  facet normal -0 0 -1
    outer loop
      vertex -1.25801 -0.816958 2.5
      vertex -10 -2.5 2.5
      vertex -1.29904 -0.749999 2.5
    endloop
  endfacet
  facet normal -0 0 -1
    outer loop
      vertex -1.21352 -0.881678 2.5
      vertex -10 -2.5 2.5
      vertex -1.25801 -0.816958 2.5
    endloop
  endfacet
  facet normal -0 0 -1
    outer loop
      vertex -1.16572 -0.94398 2.5
      vertex -10 -2.5 2.5
      vertex -1.21352 -0.881678 2.5
    endloop
  endfacet
  facet normal -0 0 -1
    outer loop
      vertex -1.11472 -1.0037 2.5
      vertex -10 -2.5 2.5
      vertex -1.16572 -0.94398 2.5
    endloop
  endfacet
  facet normal -0 0 -1
    outer loop
      vertex -1.06066 -1.06066 2.5
      vertex -10 -2.5 2.5
      vertex -1.11472 -1.0037 2.5
    endloop
  endfacet
  facet normal -0 0 -1
    outer loop
      vertex -1.0037 -1.11472 2.5
      vertex -10 -2.5 2.5
      vertex -1.06066 -1.06066 2.5
    endloop
  endfacet
  facet normal -0 0 -1
    outer loop
      vertex -0.94398 -1.16572 2.5
      vertex -10 -2.5 2.5
      vertex -1.0037 -1.11472 2.5
    endloop
  endfacet
  facet normal -0 0 -1
    outer loop
      vertex -0.881678 -1.21352 2.5
      vertex -10 -2.5 2.5
      vertex -0.94398 -1.16572 2.5
    endloop
  endfacet
  facet normal -0 0 -1
    outer loop
      vertex -0.816958 -1.25801 2.5
      vertex -10 -2.5 2.5
      vertex -0.881678 -1.21352 2.5
    endloop
  endfacet
  facet normal -0 0 -1
    outer loop
      vertex -0.75 -1.29904 2.5
      vertex -10 -2.5 2.5
      vertex -0.816958 -1.25801 2.5
    endloop
  endfacet
  facet normal -0 0 -1
    outer loop
      vertex -0.680985 -1.33651 2.5
      vertex -10 -2.5 2.5
      vertex -0.75 -1.29904 2.5
    endloop
  endfacet
  facet normal -0 0 -1
    outer loop
      vertex -0.610105 -1.37032 2.5
      vertex -10 -2.5 2.5
      vertex -0.680985 -1.33651 2.5
    endloop
  endfacet
  facet normal -0 0 -1
    outer loop
      vertex -0.537552 -1.40037 2.5
      vertex -10 -2.5 2.5
      vertex -0.610105 -1.37032 2.5
    endloop
  endfacet
  facet normal -0 0 -1
    outer loop
      vertex -0.463525 -1.42658 2.5
      vertex -10 -2.5 2.5
      vertex -0.537552 -1.40037 2.5
    endloop
  endfacet
  facet normal -0 0 -1
    outer loop
      vertex -0.388228 -1.44889 2.5
      vertex -10 -2.5 2.5
      vertex -0.463525 -1.42658 2.5
    endloop
  endfacet
  facet normal -0 0 -1
    outer loop
      vertex -0.311867 -1.46722 2.5
      vertex -10 -2.5 2.5
      vertex -0.388228 -1.44889 2.5
    endloop
  endfacet
  facet normal -0 0 -1
    outer loop
      vertex -0.234652 -1.48153 2.5
      vertex -10 -2.5 2.5
      vertex -0.311867 -1.46722 2.5
    endloop
  endfacet
  facet normal -0 0 -1
    outer loop
      vertex -0.156793 -1.49178 2.5
      vertex -10 -2.5 2.5
      vertex -0.234652 -1.48153 2.5
    endloop
  endfacet
  facet normal -0 0 -1
    outer loop
      vertex -0.0785036 -1.49794 2.5
      vertex -10 -2.5 2.5
      vertex -0.156793 -1.49178 2.5
    endloop
  endfacet
  facet normal 0 0 -1
    outer loop
      vertex 1.49794 0.0785036 2.5
      vertex 10 2.5 2.5
      vertex 1.5 0 2.5
    endloop
  endfacet
  facet normal 0 0 -1
    outer loop
      vertex 1.49178 0.156793 2.5
      vertex 10 2.5 2.5
      vertex 1.49794 0.0785036 2.5
    endloop
  endfacet
  facet normal 0 0 -1
    outer loop
      vertex 1.48153 0.234652 2.5
      vertex 10 2.5 2.5
      vertex 1.49178 0.156793 2.5
    endloop
  endfacet
  facet normal 0 0 -1
    outer loop
      vertex 1.46722 0.311867 2.5
      vertex 10 2.5 2.5
      vertex 1.48153 0.234652 2.5
    endloop
  endfacet
  facet normal 0 0 -1
    outer loop
      vertex 1.44889 0.388228 2.5
      vertex 10 2.5 2.5
      vertex 1.46722 0.311867 2.5
    endloop
  endfacet
  facet normal 0 0 -1
    outer loop
      vertex 1.42658 0.463525 2.5
      vertex 10 2.5 2.5
      vertex 1.44889 0.388228 2.5
    endloop
  endfacet
  facet normal 0 0 -1
    outer loop
      vertex 1.40037 0.537552 2.5
      vertex 10 2.5 2.5
      vertex 1.42658 0.463525 2.5
    endloop
  endfacet
  facet normal 0 0 -1
    outer loop
      vertex 1.37032 0.610105 2.5
      vertex 10 2.5 2.5
      vertex 1.40037 0.537552 2.5
    endloop
  endfacet
  facet normal 0 0 -1
    outer loop
      vertex 1.33651 0.680985 2.5
      vertex 10 2.5 2.5
      vertex 1.37032 0.610105 2.5
    endloop
  endfacet
  facet normal 0 0 -1
    outer loop
      vertex 1.29904 0.749999 2.5
      vertex 10 2.5 2.5
      vertex 1.33651 0.680985 2.5
    endloop
  endfacet
  facet normal 0 0 -1
    outer loop
      vertex 1.25801 0.816958 2.5
      vertex 10 2.5 2.5
      vertex 1.29904 0.749999 2.5
    endloop
  endfacet
  facet normal 0 0 -1
    outer loop
      vertex 1.21352 0.881678 2.5
      vertex 10 2.5 2.5
      vertex 1.25801 0.816958 2.5
    endloop
  endfacet
  facet normal 0 0 -1
    outer loop
      vertex 1.16572 0.94398 2.5
      vertex 10 2.5 2.5
      vertex 1.21352 0.881678 2.5
    endloop
  endfacet
  facet normal 0 0 -1
    outer loop
      vertex 1.11472 1.0037 2.5
      vertex 10 2.5 2.5
      vertex 1.16572 0.94398 2.5
    endloop
  endfacet
  facet normal 0 0 -1
    outer loop
      vertex 1.06066 1.06066 2.5
      vertex 10 2.5 2.5
      vertex 1.11472 1.0037 2.5
    endloop
  endfacet
  facet normal 0 0 -1
    outer loop
      vertex 1.0037 1.11472 2.5
      vertex 10 2.5 2.5
      vertex 1.06066 1.06066 2.5
    endloop
  endfacet
  facet normal 0 0 -1
    outer loop
      vertex 0.94398 1.16572 2.5
      vertex 10 2.5 2.5
      vertex 1.0037 1.11472 2.5
    endloop
  endfacet
  facet normal 0 0 -1
    outer loop
      vertex 0.881678 1.21352 2.5
      vertex 10 2.5 2.5
      vertex 0.94398 1.16572 2.5
    endloop
  endfacet
  facet normal 0 0 -1
    outer loop
      vertex 0.816958 1.25801 2.5
      vertex 10 2.5 2.5
      vertex 0.881678 1.21352 2.5
    endloop
  endfacet
  facet normal 0 0 -1
    outer loop
      vertex 0.75 1.29904 2.5
      vertex 10 2.5 2.5
      vertex 0.816958 1.25801 2.5
    endloop
  endfacet
  facet normal 0 0 -1
    outer loop
      vertex 0.680985 1.33651 2.5
      vertex 10 2.5 2.5
      vertex 0.75 1.29904 2.5
    endloop
  endfacet
  facet normal 0 0 -1
    outer loop
      vertex 0.610105 1.37032 2.5
      vertex 10 2.5 2.5
      vertex 0.680985 1.33651 2.5
    endloop
  endfacet
  facet normal 0 0 -1
    outer loop
      vertex 0.537552 1.40037 2.5
      vertex 10 2.5 2.5
      vertex 0.610105 1.37032 2.5
    endloop
  endfacet
  facet normal 0 0 -1
    outer loop
      vertex 0.463525 1.42658 2.5
      vertex 10 2.5 2.5
      vertex 0.537552 1.40037 2.5
    endloop
  endfacet
  facet normal 0 0 -1
    outer loop
      vertex 0.388228 1.44889 2.5
      vertex 10 2.5 2.5
      vertex 0.463525 1.42658 2.5
    endloop
  endfacet
  facet normal 0 0 -1
    outer loop
      vertex 0.311867 1.46722 2.5
      vertex 10 2.5 2.5
      vertex 0.388228 1.44889 2.5
    endloop
  endfacet
  facet normal 0 0 -1
    outer loop
      vertex 0.234652 1.48153 2.5
      vertex 10 2.5 2.5
      vertex 0.311867 1.46722 2.5
    endloop
  endfacet
  facet normal 0 0 -1
    outer loop
      vertex 0.156793 1.49178 2.5
      vertex 10 2.5 2.5
      vertex 0.234652 1.48153 2.5
    endloop
  endfacet
  facet normal 0 0 -1
    outer loop
      vertex 0.0785036 1.49794 2.5
      vertex 10 2.5 2.5
      vertex 0.156793 1.49178 2.5
    endloop
  endfacet
  facet normal 0 0 -1
    outer loop
      vertex 0 1.5 2.5
      vertex 10 2.5 2.5
      vertex 0.0785036 1.49794 2.5
    endloop
  endfacet
  facet normal 0 0 -1
    outer loop
      vertex -10 2.5 2.5
      vertex 0 1.5 2.5
      vertex -0.0785036 1.49794 2.5
    endloop
  endfacet
  facet normal 0 0 -1
    outer loop
      vertex -10 2.5 2.5
      vertex -0.0785036 1.49794 2.5
      vertex -0.156793 1.49178 2.5
    endloop
  endfacet
  facet normal 0 0 -1
    outer loop
      vertex -10 2.5 2.5
      vertex -1.5 0 2.5
      vertex -10 -2.5 2.5
    endloop
  endfacet
  facet normal 0 0 -1
    outer loop
      vertex -1.5 0 2.5
      vertex -10 2.5 2.5
      vertex -1.49794 0.0785036 2.5
    endloop
  endfacet
  facet normal 0 0 -1
    outer loop
      vertex -1.49794 0.0785036 2.5
      vertex -10 2.5 2.5
      vertex -1.49178 0.156793 2.5
    endloop
  endfacet
  facet normal 0 0 -1
    outer loop
      vertex -1.49178 0.156793 2.5
      vertex -10 2.5 2.5
      vertex -1.48153 0.234652 2.5
    endloop
  endfacet
  facet normal 0 0 -1
    outer loop
      vertex -1.48153 0.234652 2.5
      vertex -10 2.5 2.5
      vertex -1.46722 0.311867 2.5
    endloop
  endfacet
  facet normal 0 0 -1
    outer loop
      vertex -1.46722 0.311867 2.5
      vertex -10 2.5 2.5
      vertex -1.44889 0.388228 2.5
    endloop
  endfacet
  facet normal 0 0 -1
    outer loop
      vertex -1.44889 0.388228 2.5
      vertex -10 2.5 2.5
      vertex -1.42658 0.463525 2.5
    endloop
  endfacet
  facet normal 0 0 -1
    outer loop
      vertex -1.42658 0.463525 2.5
      vertex -10 2.5 2.5
      vertex -1.40037 0.537552 2.5
    endloop
  endfacet
  facet normal 0 0 -1
    outer loop
      vertex -1.40037 0.537552 2.5
      vertex -10 2.5 2.5
      vertex -1.37032 0.610105 2.5
    endloop
  endfacet
  facet normal 0 0 -1
    outer loop
      vertex -1.37032 0.610105 2.5
      vertex -10 2.5 2.5
      vertex -1.33651 0.680985 2.5
    endloop
  endfacet
  facet normal 0 0 -1
    outer loop
      vertex -1.33651 0.680985 2.5
      vertex -10 2.5 2.5
      vertex -1.29904 0.749999 2.5
    endloop
  endfacet
  facet normal 0 0 -1
    outer loop
      vertex -1.29904 0.749999 2.5
      vertex -10 2.5 2.5
      vertex -1.25801 0.816958 2.5
    endloop
  endfacet
  facet normal 0 0 -1
    outer loop
      vertex -1.25801 0.816958 2.5
      vertex -10 2.5 2.5
      vertex -1.21352 0.881678 2.5
    endloop
  endfacet
  facet normal 0 0 -1
    outer loop
      vertex -1.21352 0.881678 2.5
      vertex -10 2.5 2.5
      vertex -1.16572 0.94398 2.5
    endloop
  endfacet
  facet normal 0 0 -1
    outer loop
      vertex -1.16572 0.94398 2.5
      vertex -10 2.5 2.5
      vertex -1.11472 1.0037 2.5
    endloop
  endfacet
  facet normal 0 0 -1
    outer loop
      vertex -1.11472 1.0037 2.5
      vertex -10 2.5 2.5
      vertex -1.06066 1.06066 2.5
    endloop
  endfacet
  facet normal 0 0 -1
    outer loop
      vertex -1.06066 1.06066 2.5
      vertex -10 2.5 2.5
      vertex -1.0037 1.11472 2.5
    endloop
  endfacet
  facet normal 0 0 -1
    outer loop
      vertex -1.0037 1.11472 2.5
      vertex -10 2.5 2.5
      vertex -0.94398 1.16572 2.5
    endloop
  endfacet
  facet normal 0 0 -1
    outer loop
      vertex -0.94398 1.16572 2.5
      vertex -10 2.5 2.5
      vertex -0.881678 1.21352 2.5
    endloop
  endfacet
  facet normal 0 0 -1
    outer loop
      vertex -0.881678 1.21352 2.5
      vertex -10 2.5 2.5
      vertex -0.816958 1.25801 2.5
    endloop
  endfacet
  facet normal 0 0 -1
    outer loop
      vertex -0.816958 1.25801 2.5
      vertex -10 2.5 2.5
      vertex -0.749999 1.29904 2.5
    endloop
  endfacet
  facet normal 0 0 -1
    outer loop
      vertex -0.749999 1.29904 2.5
      vertex -10 2.5 2.5
      vertex -0.680985 1.33651 2.5
    endloop
  endfacet
  facet normal 0 0 -1
    outer loop
      vertex -0.680985 1.33651 2.5
      vertex -10 2.5 2.5
      vertex -0.610105 1.37032 2.5
    endloop
  endfacet
  facet normal 0 0 -1
    outer loop
      vertex 0 1.5 2.5
      vertex -10 2.5 2.5
      vertex 10 2.5 2.5
    endloop
  endfacet
  facet normal 0 0 -1
    outer loop
      vertex -0.234652 1.48153 2.5
      vertex -10 2.5 2.5
      vertex -0.156793 1.49178 2.5
    endloop
  endfacet
  facet normal 0 0 -1
    outer loop
      vertex -0.311867 1.46722 2.5
      vertex -10 2.5 2.5
      vertex -0.234652 1.48153 2.5
    endloop
  endfacet
  facet normal 0 0 -1
    outer loop
      vertex -0.388228 1.44889 2.5
      vertex -10 2.5 2.5
      vertex -0.311867 1.46722 2.5
    endloop
  endfacet
  facet normal 0 0 -1
    outer loop
      vertex -0.463525 1.42658 2.5
      vertex -10 2.5 2.5
      vertex -0.388228 1.44889 2.5
    endloop
  endfacet
  facet normal 0 0 -1
    outer loop
      vertex -0.537552 1.40037 2.5
      vertex -10 2.5 2.5
      vertex -0.463525 1.42658 2.5
    endloop
  endfacet
  facet normal 0 0 -1
    outer loop
      vertex -0.610105 1.37032 2.5
      vertex -10 2.5 2.5
      vertex -0.537552 1.40037 2.5
    endloop
  endfacet
  facet normal -0 0 1
    outer loop
      vertex -10 2.5 22.5
      vertex 10 -2.5 22.5
      vertex 10 2.5 22.5
    endloop
  endfacet
  facet normal 0 0 1
    outer loop
      vertex 10 -2.5 22.5
      vertex -10 2.5 22.5
      vertex -10 -2.5 22.5
    endloop
  endfacet
  facet normal 1 -0 0
    outer loop
      vertex -6 -2.5 18.5
      vertex -6 2.5 6.5
      vertex -6 2.5 18.5
    endloop
  endfacet
  facet normal 1 0 0
    outer loop
      vertex -6 2.5 6.5
      vertex -6 -2.5 18.5
      vertex -6 -2.5 6.5
    endloop
  endfacet
  facet normal -1 0 0
    outer loop
      vertex 6 -2.5 6.5
      vertex 6 2.5 18.5
      vertex 6 2.5 6.5
    endloop
  endfacet
  facet normal -1 -0 0
    outer loop
      vertex 6 2.5 18.5
      vertex 6 -2.5 6.5
      vertex 6 -2.5 18.5
    endloop
  endfacet
  facet normal 0 0 -1
    outer loop
      vertex -6 -2.5 18.5
      vertex 6 2.5 18.5
      vertex 6 -2.5 18.5
    endloop
  endfacet
  facet normal -0 0 -1
    outer loop
      vertex 6 2.5 18.5
      vertex -6 -2.5 18.5
      vertex -6 2.5 18.5
    endloop
  endfacet
  facet normal -0 0 1
    outer loop
      vertex -6 2.5 6.5
      vertex 6 -2.5 6.5
      vertex 6 2.5 6.5
    endloop
  endfacet
  facet normal 0 0 1
    outer loop
      vertex 6 -2.5 6.5
      vertex -6 2.5 6.5
      vertex -6 -2.5 6.5
    endloop
  endfacet
  facet normal 0 0 -1
    outer loop
      vertex -1.5 -2.5 0
      vertex 1.5 2.5 0
      vertex 1.5 -2.5 0
    endloop
  endfacet
  facet normal -0 0 -1
    outer loop
      vertex 1.5 2.5 0
      vertex -1.5 -2.5 0
      vertex -1.5 2.5 0
    endloop
  endfacet
  facet normal 0 -1 6.35783e-007
    outer loop
      vertex -1.5 -2.5 0
      vertex 2.5 -2.5 1.5
      vertex -2.5 -2.5 1.5
    endloop
  endfacet
  facet normal 0 -1 6.35783e-007
    outer loop
      vertex 2.5 -2.5 1.5
      vertex -1.5 -2.5 0
      vertex 1.5 -2.5 0
    endloop
  endfacet
  facet normal 0.813733 0 -0.581238
    outer loop
      vertex 2.5 -2.5 1.4
      vertex 1.5 2.5 0
      vertex 2.5 2.5 1.4
    endloop
  endfacet
  facet normal 0.813733 0 -0.581238
    outer loop
      vertex 1.5 2.5 0
      vertex 2.5 -2.5 1.4
      vertex 1.5 -2.5 0
    endloop
  endfacet
  facet normal -1 0 0
    outer loop
      vertex -2.5 -2.5 1.4
      vertex -2.5 2.5 1.5
      vertex -2.5 2.5 1.4
    endloop
  endfacet
  facet normal -1 -0 0
    outer loop
      vertex -2.5 2.5 1.5
      vertex -2.5 -2.5 1.4
      vertex -2.5 -2.5 1.5
    endloop
  endfacet
  facet normal -9.09495e-014 1.90735e-007 1
    outer loop
      vertex 2.5 2.5 1.5
      vertex 1.5 0 1.5
      vertex 2.5 -2.5 1.5
    endloop
  endfacet
  facet normal 4.47533e-007 1.17215e-008 1
    outer loop
      vertex 2.5 2.5 1.5
      vertex 1.49794 0.0785036 1.5
      vertex 1.5 0 1.5
    endloop
  endfacet
  facet normal 3.99817e-007 3.14674e-008 1
    outer loop
      vertex 2.5 2.5 1.5
      vertex 1.49178 0.156793 1.5
      vertex 1.49794 0.0785036 1.5
    endloop
  endfacet
  facet normal 3.62146e-007 4.76763e-008 1
    outer loop
      vertex 2.5 2.5 1.5
      vertex 1.48153 0.234652 1.5
      vertex 1.49178 0.156793 1.5
    endloop
  endfacet
  facet normal 3.31523e-007 6.14436e-008 1
    outer loop
      vertex 2.5 2.5 1.5
      vertex 1.46722 0.311867 1.5
      vertex 1.48153 0.234652 1.5
    endloop
  endfacet
  facet normal -1.8863e-006 1.10824e-006 1
    outer loop
      vertex 2.5 2.5 1.5
      vertex 1.44889 0.388228 1.5
      vertex 1.46722 0.311867 1.5
    endloop
  endfacet
  facet normal 2.133e-007 6.31818e-008 1
    outer loop
      vertex 2.5 2.5 1.5
      vertex 1.42658 0.463525 1.5
      vertex 1.44889 0.388228 1.5
    endloop
  endfacet
  facet normal 1.99286e-007 7.05688e-008 1
    outer loop
      vertex 2.5 2.5 1.5
      vertex 1.40037 0.537552 1.5
      vertex 1.42658 0.463525 1.5
    endloop
  endfacet
  facet normal 1.86993e-007 7.7457e-008 1
    outer loop
      vertex 2.5 2.5 1.5
      vertex 1.37032 0.610105 1.5
      vertex 1.40037 0.537552 1.5
    endloop
  endfacet
  facet normal 1.76076e-007 8.39823e-008 1
    outer loop
      vertex 2.5 2.5 1.5
      vertex 1.33651 0.680985 1.5
      vertex 1.37032 0.610105 1.5
    endloop
  endfacet
  facet normal 1.6625e-007 9.02674e-008 1
    outer loop
      vertex 2.5 2.5 1.5
      vertex 1.29904 0.749999 1.5
      vertex 1.33651 0.680985 1.5
    endloop
  endfacet
  facet normal 1.57312e-007 9.64011e-008 1
    outer loop
      vertex 2.5 2.5 1.5
      vertex 1.25801 0.816958 1.5
      vertex 1.29904 0.749999 1.5
    endloop
  endfacet
  facet normal 1.49091e-007 1.02468e-007 1
    outer loop
      vertex 2.5 2.5 1.5
      vertex 1.21352 0.881678 1.5
      vertex 1.25801 0.816958 1.5
    endloop
  endfacet
  facet normal -1.0833e-006 1.08215e-006 1
    outer loop
      vertex 2.5 2.5 1.5
      vertex 1.16572 0.94398 1.5
      vertex 1.21352 0.881678 1.5
    endloop
  endfacet
  facet normal 8.95218e-008 7.64587e-008 1
    outer loop
      vertex 2.5 2.5 1.5
      vertex 1.11472 1.0037 1.5
      vertex 1.16572 0.94398 1.5
    endloop
  endfacet
  facet normal 8.49906e-008 8.06537e-008 1
    outer loop
      vertex 2.5 2.5 1.5
      vertex 1.06066 1.06066 1.5
      vertex 1.11472 1.0037 1.5
    endloop
  endfacet
  facet normal 8.06537e-008 8.49906e-008 1
    outer loop
      vertex 2.5 2.5 1.5
      vertex 1.0037 1.11472 1.5
      vertex 1.06066 1.06066 1.5
    endloop
  endfacet
  facet normal 7.64587e-008 8.95218e-008 1
    outer loop
      vertex 2.5 2.5 1.5
      vertex 0.94398 1.16572 1.5
      vertex 1.0037 1.11472 1.5
    endloop
  endfacet
  facet normal 7.23603e-008 9.43013e-008 1
    outer loop
      vertex 2.5 2.5 1.5
      vertex 0.881678 1.21352 1.5
      vertex 0.94398 1.16572 1.5
    endloop
  endfacet
  facet normal 6.83118e-008 9.93941e-008 1
    outer loop
      vertex 2.5 2.5 1.5
      vertex 0.816958 1.25801 1.5
      vertex 0.881678 1.21352 1.5
    endloop
  endfacet
  facet normal 6.42679e-008 1.04874e-007 1
    outer loop
      vertex 2.5 2.5 1.5
      vertex 0.75 1.29904 1.5
      vertex 0.816958 1.25801 1.5
    endloop
  endfacet
  facet normal 6.01778e-008 1.10834e-007 1
    outer loop
      vertex 2.5 2.5 1.5
      vertex 0.680985 1.33651 1.5
      vertex 0.75 1.29904 1.5
    endloop
  endfacet
  facet normal 5.59882e-008 1.17384e-007 1
    outer loop
      vertex 2.5 2.5 1.5
      vertex 0.610105 1.37032 1.5
      vertex 0.680985 1.33651 1.5
    endloop
  endfacet
  facet normal 5.1638e-008 1.24662e-007 1
    outer loop
      vertex 2.5 2.5 1.5
      vertex 0.537552 1.40037 1.5
      vertex 0.610105 1.37032 1.5
    endloop
  endfacet
  facet normal 4.70459e-008 1.32857e-007 1
    outer loop
      vertex 2.5 2.5 1.5
      vertex 0.463525 1.42658 1.5
      vertex 0.537552 1.40037 1.5
    endloop
  endfacet
  facet normal 4.21212e-008 1.422e-007 1
    outer loop
      vertex 2.5 2.5 1.5
      vertex 0.388228 1.44889 1.5
      vertex 0.463525 1.42658 1.5
    endloop
  endfacet
  facet normal 3.67373e-008 1.53017e-007 1
    outer loop
      vertex 2.5 2.5 1.5
      vertex 0.311867 1.46722 1.5
      vertex 0.388228 1.44889 1.5
    endloop
  endfacet
  facet normal 3.07218e-008 1.65762e-007 1
    outer loop
      vertex 2.5 2.5 1.5
      vertex 0.234652 1.48153 1.5
      vertex 0.311867 1.46722 1.5
    endloop
  endfacet
  facet normal 2.38382e-008 1.81073e-007 1
    outer loop
      vertex 2.5 2.5 1.5
      vertex 0.156793 1.49178 1.5
      vertex 0.234652 1.48153 1.5
    endloop
  endfacet
  facet normal 1.57337e-008 1.99909e-007 1
    outer loop
      vertex 2.5 2.5 1.5
      vertex 0.0785036 1.49794 1.5
      vertex 0.156793 1.49178 1.5
    endloop
  endfacet
  facet normal 5.86077e-009 2.23767e-007 1
    outer loop
      vertex 2.5 2.5 1.5
      vertex 0 1.5 1.5
      vertex 0.0785036 1.49794 1.5
    endloop
  endfacet
  facet normal -0 2.38419e-007 1
    outer loop
      vertex -2.5 2.5 1.5
      vertex 0 1.5 1.5
      vertex 2.5 2.5 1.5
    endloop
  endfacet
  facet normal -5.86077e-009 2.23767e-007 1
    outer loop
      vertex 0 1.5 1.5
      vertex -2.5 2.5 1.5
      vertex -0.0785036 1.49794 1.5
    endloop
  endfacet
  facet normal -1.57337e-008 1.99909e-007 1
    outer loop
      vertex -0.0785036 1.49794 1.5
      vertex -2.5 2.5 1.5
      vertex -0.156793 1.49178 1.5
    endloop
  endfacet
  facet normal -2.38382e-008 1.81073e-007 1
    outer loop
      vertex -0.156793 1.49178 1.5
      vertex -2.5 2.5 1.5
      vertex -0.234652 1.48153 1.5
    endloop
  endfacet
  facet normal -3.07218e-008 1.65762e-007 1
    outer loop
      vertex -0.234652 1.48153 1.5
      vertex -2.5 2.5 1.5
      vertex -0.311867 1.46722 1.5
    endloop
  endfacet
  facet normal -3.67373e-008 1.53017e-007 1
    outer loop
      vertex -0.311867 1.46722 1.5
      vertex -2.5 2.5 1.5
      vertex -0.388228 1.44889 1.5
    endloop
  endfacet
  facet normal -4.21212e-008 1.422e-007 1
    outer loop
      vertex -0.388228 1.44889 1.5
      vertex -2.5 2.5 1.5
      vertex -0.463525 1.42658 1.5
    endloop
  endfacet
  facet normal -4.47533e-007 1.17215e-008 1
    outer loop
      vertex -1.49794 0.0785036 1.5
      vertex -2.5 2.5 1.5
      vertex -1.5 0 1.5
    endloop
  endfacet
  facet normal -3.99817e-007 3.14674e-008 1
    outer loop
      vertex -1.49178 0.156793 1.5
      vertex -2.5 2.5 1.5
      vertex -1.49794 0.0785036 1.5
    endloop
  endfacet
  facet normal -3.62146e-007 4.76763e-008 1
    outer loop
      vertex -1.48153 0.234652 1.5
      vertex -2.5 2.5 1.5
      vertex -1.49178 0.156793 1.5
    endloop
  endfacet
  facet normal -3.31523e-007 6.14436e-008 1
    outer loop
      vertex -1.46722 0.311867 1.5
      vertex -2.5 2.5 1.5
      vertex -1.48153 0.234652 1.5
    endloop
  endfacet
  facet normal 1.8863e-006 1.10824e-006 1
    outer loop
      vertex -1.44889 0.388228 1.5
      vertex -2.5 2.5 1.5
      vertex -1.46722 0.311867 1.5
    endloop
  endfacet
  facet normal -2.133e-007 6.31818e-008 1
    outer loop
      vertex -1.42658 0.463525 1.5
      vertex -2.5 2.5 1.5
      vertex -1.44889 0.388228 1.5
    endloop
  endfacet
  facet normal -1.99286e-007 7.05688e-008 1
    outer loop
      vertex -1.40037 0.537552 1.5
      vertex -2.5 2.5 1.5
      vertex -1.42658 0.463525 1.5
    endloop
  endfacet
  facet normal -1.86993e-007 7.7457e-008 1
    outer loop
      vertex -1.37032 0.610105 1.5
      vertex -2.5 2.5 1.5
      vertex -1.40037 0.537552 1.5
    endloop
  endfacet
  facet normal -1.76076e-007 8.39823e-008 1
    outer loop
      vertex -1.33651 0.680985 1.5
      vertex -2.5 2.5 1.5
      vertex -1.37032 0.610105 1.5
    endloop
  endfacet
  facet normal -1.6625e-007 9.02674e-008 1
    outer loop
      vertex -1.29904 0.749999 1.5
      vertex -2.5 2.5 1.5
      vertex -1.33651 0.680985 1.5
    endloop
  endfacet
  facet normal -1.57312e-007 9.64011e-008 1
    outer loop
      vertex -1.25801 0.816958 1.5
      vertex -2.5 2.5 1.5
      vertex -1.29904 0.749999 1.5
    endloop
  endfacet
  facet normal -1.49091e-007 1.02468e-007 1
    outer loop
      vertex -1.21352 0.881678 1.5
      vertex -2.5 2.5 1.5
      vertex -1.25801 0.816958 1.5
    endloop
  endfacet
  facet normal 1.0833e-006 1.08215e-006 1
    outer loop
      vertex -1.16572 0.94398 1.5
      vertex -2.5 2.5 1.5
      vertex -1.21352 0.881678 1.5
    endloop
  endfacet
  facet normal -8.95218e-008 7.64587e-008 1
    outer loop
      vertex -1.11472 1.0037 1.5
      vertex -2.5 2.5 1.5
      vertex -1.16572 0.94398 1.5
    endloop
  endfacet
  facet normal -8.49906e-008 8.06537e-008 1
    outer loop
      vertex -1.06066 1.06066 1.5
      vertex -2.5 2.5 1.5
      vertex -1.11472 1.0037 1.5
    endloop
  endfacet
  facet normal -8.06537e-008 8.49906e-008 1
    outer loop
      vertex -1.0037 1.11472 1.5
      vertex -2.5 2.5 1.5
      vertex -1.06066 1.06066 1.5
    endloop
  endfacet
  facet normal -7.64587e-008 8.95218e-008 1
    outer loop
      vertex -0.94398 1.16572 1.5
      vertex -2.5 2.5 1.5
      vertex -1.0037 1.11472 1.5
    endloop
  endfacet
  facet normal -7.23603e-008 9.43013e-008 1
    outer loop
      vertex -0.881678 1.21352 1.5
      vertex -2.5 2.5 1.5
      vertex -0.94398 1.16572 1.5
    endloop
  endfacet
  facet normal -6.83118e-008 9.93941e-008 1
    outer loop
      vertex -0.816958 1.25801 1.5
      vertex -2.5 2.5 1.5
      vertex -0.881678 1.21352 1.5
    endloop
  endfacet
  facet normal -6.42674e-008 1.04875e-007 1
    outer loop
      vertex -0.749999 1.29904 1.5
      vertex -2.5 2.5 1.5
      vertex -0.816958 1.25801 1.5
    endloop
  endfacet
  facet normal -6.01783e-008 1.10833e-007 1
    outer loop
      vertex -0.680985 1.33651 1.5
      vertex -2.5 2.5 1.5
      vertex -0.749999 1.29904 1.5
    endloop
  endfacet
  facet normal -5.59882e-008 1.17384e-007 1
    outer loop
      vertex -0.610105 1.37032 1.5
      vertex -2.5 2.5 1.5
      vertex -0.680985 1.33651 1.5
    endloop
  endfacet
  facet normal -5.1638e-008 1.24662e-007 1
    outer loop
      vertex -0.537552 1.40037 1.5
      vertex -2.5 2.5 1.5
      vertex -0.610105 1.37032 1.5
    endloop
  endfacet
  facet normal -4.70459e-008 1.32857e-007 1
    outer loop
      vertex -0.463525 1.42658 1.5
      vertex -2.5 2.5 1.5
      vertex -0.537552 1.40037 1.5
    endloop
  endfacet
  facet normal -4.47533e-007 1.17215e-008 1
    outer loop
      vertex 1.49794 -0.0785036 1.5
      vertex 2.5 -2.5 1.5
      vertex 1.5 0 1.5
    endloop
  endfacet
  facet normal -3.99817e-007 3.14674e-008 1
    outer loop
      vertex 1.49178 -0.156793 1.5
      vertex 2.5 -2.5 1.5
      vertex 1.49794 -0.0785036 1.5
    endloop
  endfacet
  facet normal -3.62146e-007 4.76763e-008 1
    outer loop
      vertex 1.48153 -0.234652 1.5
      vertex 2.5 -2.5 1.5
      vertex 1.49178 -0.156793 1.5
    endloop
  endfacet
  facet normal -3.31524e-007 6.14436e-008 1
    outer loop
      vertex 1.46722 -0.311867 1.5
      vertex 2.5 -2.5 1.5
      vertex 1.48153 -0.234652 1.5
    endloop
  endfacet
  facet normal 1.8863e-006 1.10824e-006 1
    outer loop
      vertex 1.44889 -0.388228 1.5
      vertex 2.5 -2.5 1.5
      vertex 1.46722 -0.311867 1.5
    endloop
  endfacet
  facet normal -2.133e-007 6.31818e-008 1
    outer loop
      vertex 1.42658 -0.463525 1.5
      vertex 2.5 -2.5 1.5
      vertex 1.44889 -0.388228 1.5
    endloop
  endfacet
  facet normal -1.99286e-007 7.05688e-008 1
    outer loop
      vertex 1.40037 -0.537552 1.5
      vertex 2.5 -2.5 1.5
      vertex 1.42658 -0.463525 1.5
    endloop
  endfacet
  facet normal -1.86993e-007 7.7457e-008 1
    outer loop
      vertex 1.37032 -0.610105 1.5
      vertex 2.5 -2.5 1.5
      vertex 1.40037 -0.537552 1.5
    endloop
  endfacet
  facet normal -1.76076e-007 8.39823e-008 1
    outer loop
      vertex 1.33651 -0.680985 1.5
      vertex 2.5 -2.5 1.5
      vertex 1.37032 -0.610105 1.5
    endloop
  endfacet
  facet normal -1.6625e-007 9.02674e-008 1
    outer loop
      vertex 1.29904 -0.749999 1.5
      vertex 2.5 -2.5 1.5
      vertex 1.33651 -0.680985 1.5
    endloop
  endfacet
  facet normal -1.57312e-007 9.64011e-008 1
    outer loop
      vertex 1.25801 -0.816958 1.5
      vertex 2.5 -2.5 1.5
      vertex 1.29904 -0.749999 1.5
    endloop
  endfacet
  facet normal -1.49091e-007 1.02468e-007 1
    outer loop
      vertex 1.21352 -0.881678 1.5
      vertex 2.5 -2.5 1.5
      vertex 1.25801 -0.816958 1.5
    endloop
  endfacet
  facet normal 1.08329e-006 1.08215e-006 1
    outer loop
      vertex 1.16572 -0.94398 1.5
      vertex 2.5 -2.5 1.5
      vertex 1.21352 -0.881678 1.5
    endloop
  endfacet
  facet normal -8.95218e-008 7.64587e-008 1
    outer loop
      vertex 1.11472 -1.0037 1.5
      vertex 2.5 -2.5 1.5
      vertex 1.16572 -0.94398 1.5
    endloop
  endfacet
  facet normal -8.49907e-008 8.06537e-008 1
    outer loop
      vertex 1.06066 -1.06066 1.5
      vertex 2.5 -2.5 1.5
      vertex 1.11472 -1.0037 1.5
    endloop
  endfacet
  facet normal -8.06537e-008 8.49907e-008 1
    outer loop
      vertex 1.0037 -1.11472 1.5
      vertex 2.5 -2.5 1.5
      vertex 1.06066 -1.06066 1.5
    endloop
  endfacet
  facet normal -7.64587e-008 8.95219e-008 1
    outer loop
      vertex 0.94398 -1.16572 1.5
      vertex 2.5 -2.5 1.5
      vertex 1.0037 -1.11472 1.5
    endloop
  endfacet
  facet normal -7.23604e-008 9.43013e-008 1
    outer loop
      vertex 0.881678 -1.21352 1.5
      vertex 2.5 -2.5 1.5
      vertex 0.94398 -1.16572 1.5
    endloop
  endfacet
  facet normal -6.83118e-008 9.93942e-008 1
    outer loop
      vertex 0.816958 -1.25801 1.5
      vertex 2.5 -2.5 1.5
      vertex 0.881678 -1.21352 1.5
    endloop
  endfacet
  facet normal -6.42679e-008 1.04874e-007 1
    outer loop
      vertex 0.75 -1.29904 1.5
      vertex 2.5 -2.5 1.5
      vertex 0.816958 -1.25801 1.5
    endloop
  endfacet
  facet normal -6.01778e-008 1.10834e-007 1
    outer loop
      vertex 0.680985 -1.33651 1.5
      vertex 2.5 -2.5 1.5
      vertex 0.75 -1.29904 1.5
    endloop
  endfacet
  facet normal -5.59882e-008 1.17384e-007 1
    outer loop
      vertex 0.610105 -1.37032 1.5
      vertex 2.5 -2.5 1.5
      vertex 0.680985 -1.33651 1.5
    endloop
  endfacet
  facet normal -5.1638e-008 1.24662e-007 1
    outer loop
      vertex 0.537552 -1.40037 1.5
      vertex 2.5 -2.5 1.5
      vertex 0.610105 -1.37032 1.5
    endloop
  endfacet
  facet normal -4.70459e-008 1.32857e-007 1
    outer loop
      vertex 0.463525 -1.42658 1.5
      vertex 2.5 -2.5 1.5
      vertex 0.537552 -1.40037 1.5
    endloop
  endfacet
  facet normal -4.21212e-008 1.422e-007 1
    outer loop
      vertex 0.388228 -1.44889 1.5
      vertex 2.5 -2.5 1.5
      vertex 0.463525 -1.42658 1.5
    endloop
  endfacet
  facet normal -3.67373e-008 1.53017e-007 1
    outer loop
      vertex 0.311867 -1.46722 1.5
      vertex 2.5 -2.5 1.5
      vertex 0.388228 -1.44889 1.5
    endloop
  endfacet
  facet normal -3.07218e-008 1.65762e-007 1
    outer loop
      vertex 0.234652 -1.48153 1.5
      vertex 2.5 -2.5 1.5
      vertex 0.311867 -1.46722 1.5
    endloop
  endfacet
  facet normal -2.38382e-008 1.81073e-007 1
    outer loop
      vertex 0.156793 -1.49178 1.5
      vertex 2.5 -2.5 1.5
      vertex 0.234652 -1.48153 1.5
    endloop
  endfacet
  facet normal -1.57337e-008 1.99909e-007 1
    outer loop
      vertex 0.0785036 -1.49794 1.5
      vertex 2.5 -2.5 1.5
      vertex 0.156793 -1.49178 1.5
    endloop
  endfacet
  facet normal -5.86077e-009 2.23767e-007 1
    outer loop
      vertex 0 -1.5 1.5
      vertex 2.5 -2.5 1.5
      vertex 0.0785036 -1.49794 1.5
    endloop
  endfacet
  facet normal 5.86077e-009 2.23767e-007 1
    outer loop
      vertex -2.5 -2.5 1.5
      vertex 0 -1.5 1.5
      vertex -0.0785036 -1.49794 1.5
    endloop
  endfacet
  facet normal 1.57337e-008 1.99909e-007 1
    outer loop
      vertex -2.5 -2.5 1.5
      vertex -0.0785036 -1.49794 1.5
      vertex -0.156793 -1.49178 1.5
    endloop
  endfacet
  facet normal 2.38382e-008 1.81073e-007 1
    outer loop
      vertex -2.5 -2.5 1.5
      vertex -0.156793 -1.49178 1.5
      vertex -0.234652 -1.48153 1.5
    endloop
  endfacet
  facet normal 3.07218e-008 1.65762e-007 1
    outer loop
      vertex -2.5 -2.5 1.5
      vertex -0.234652 -1.48153 1.5
      vertex -0.311867 -1.46722 1.5
    endloop
  endfacet
  facet normal 3.67373e-008 1.53017e-007 1
    outer loop
      vertex -2.5 -2.5 1.5
      vertex -0.311867 -1.46722 1.5
      vertex -0.388228 -1.44889 1.5
    endloop
  endfacet
  facet normal 4.21212e-008 1.422e-007 1
    outer loop
      vertex -2.5 -2.5 1.5
      vertex -0.388228 -1.44889 1.5
      vertex -0.463525 -1.42658 1.5
    endloop
  endfacet
  facet normal 4.70459e-008 1.32857e-007 1
    outer loop
      vertex -2.5 -2.5 1.5
      vertex -0.463525 -1.42658 1.5
      vertex -0.537552 -1.40037 1.5
    endloop
  endfacet
  facet normal 9.09495e-014 1.90735e-007 1
    outer loop
      vertex -2.5 -2.5 1.5
      vertex -1.5 0 1.5
      vertex -2.5 2.5 1.5
    endloop
  endfacet
  facet normal 4.47533e-007 1.17215e-008 1
    outer loop
      vertex -1.5 0 1.5
      vertex -2.5 -2.5 1.5
      vertex -1.49794 -0.0785036 1.5
    endloop
  endfacet
  facet normal 3.99817e-007 3.14674e-008 1
    outer loop
      vertex -1.49794 -0.0785036 1.5
      vertex -2.5 -2.5 1.5
      vertex -1.49178 -0.156793 1.5
    endloop
  endfacet
  facet normal 3.62146e-007 4.76763e-008 1
    outer loop
      vertex -1.49178 -0.156793 1.5
      vertex -2.5 -2.5 1.5
      vertex -1.48153 -0.234652 1.5
    endloop
  endfacet
  facet normal 3.31524e-007 6.14436e-008 1
    outer loop
      vertex -1.48153 -0.234652 1.5
      vertex -2.5 -2.5 1.5
      vertex -1.46722 -0.311867 1.5
    endloop
  endfacet
  facet normal -1.8863e-006 1.10824e-006 1
    outer loop
      vertex -1.46722 -0.311867 1.5
      vertex -2.5 -2.5 1.5
      vertex -1.44889 -0.388228 1.5
    endloop
  endfacet
  facet normal 2.133e-007 6.31818e-008 1
    outer loop
      vertex -1.44889 -0.388228 1.5
      vertex -2.5 -2.5 1.5
      vertex -1.42658 -0.463525 1.5
    endloop
  endfacet
  facet normal 0 2.38419e-007 1
    outer loop
      vertex 0 -1.5 1.5
      vertex -2.5 -2.5 1.5
      vertex 2.5 -2.5 1.5
    endloop
  endfacet
  facet normal 5.1638e-008 1.24662e-007 1
    outer loop
      vertex -0.610105 -1.37032 1.5
      vertex -2.5 -2.5 1.5
      vertex -0.537552 -1.40037 1.5
    endloop
  endfacet
  facet normal 5.59882e-008 1.17384e-007 1
    outer loop
      vertex -0.680985 -1.33651 1.5
      vertex -2.5 -2.5 1.5
      vertex -0.610105 -1.37032 1.5
    endloop
  endfacet
  facet normal 6.01778e-008 1.10834e-007 1
    outer loop
      vertex -0.75 -1.29904 1.5
      vertex -2.5 -2.5 1.5
      vertex -0.680985 -1.33651 1.5
    endloop
  endfacet
  facet normal 6.42679e-008 1.04874e-007 1
    outer loop
      vertex -0.816958 -1.25801 1.5
      vertex -2.5 -2.5 1.5
      vertex -0.75 -1.29904 1.5
    endloop
  endfacet
  facet normal 6.83118e-008 9.93942e-008 1
    outer loop
      vertex -0.881678 -1.21352 1.5
      vertex -2.5 -2.5 1.5
      vertex -0.816958 -1.25801 1.5
    endloop
  endfacet
  facet normal 7.23604e-008 9.43013e-008 1
    outer loop
      vertex -0.94398 -1.16572 1.5
      vertex -2.5 -2.5 1.5
      vertex -0.881678 -1.21352 1.5
    endloop
  endfacet
  facet normal 7.64587e-008 8.95219e-008 1
    outer loop
      vertex -1.0037 -1.11472 1.5
      vertex -2.5 -2.5 1.5
      vertex -0.94398 -1.16572 1.5
    endloop
  endfacet
  facet normal 8.06537e-008 8.49907e-008 1
    outer loop
      vertex -1.06066 -1.06066 1.5
      vertex -2.5 -2.5 1.5
      vertex -1.0037 -1.11472 1.5
    endloop
  endfacet
  facet normal 8.49907e-008 8.06537e-008 1
    outer loop
      vertex -1.11472 -1.0037 1.5
      vertex -2.5 -2.5 1.5
      vertex -1.06066 -1.06066 1.5
    endloop
  endfacet
  facet normal 8.95218e-008 7.64587e-008 1
    outer loop
      vertex -1.16572 -0.94398 1.5
      vertex -2.5 -2.5 1.5
      vertex -1.11472 -1.0037 1.5
    endloop
  endfacet
  facet normal -1.08329e-006 1.08215e-006 1
    outer loop
      vertex -1.21352 -0.881678 1.5
      vertex -2.5 -2.5 1.5
      vertex -1.16572 -0.94398 1.5
    endloop
  endfacet
  facet normal 1.49091e-007 1.02468e-007 1
    outer loop
      vertex -1.25801 -0.816958 1.5
      vertex -2.5 -2.5 1.5
      vertex -1.21352 -0.881678 1.5
    endloop
  endfacet
  facet normal 1.57312e-007 9.64011e-008 1
    outer loop
      vertex -1.29904 -0.749999 1.5
      vertex -2.5 -2.5 1.5
      vertex -1.25801 -0.816958 1.5
    endloop
  endfacet
  facet normal 1.6625e-007 9.02674e-008 1
    outer loop
      vertex -1.33651 -0.680985 1.5
      vertex -2.5 -2.5 1.5
      vertex -1.29904 -0.749999 1.5
    endloop
  endfacet
  facet normal 1.76076e-007 8.39823e-008 1
    outer loop
      vertex -1.37032 -0.610105 1.5
      vertex -2.5 -2.5 1.5
      vertex -1.33651 -0.680985 1.5
    endloop
  endfacet
  facet normal 1.86993e-007 7.7457e-008 1
    outer loop
      vertex -1.40037 -0.537552 1.5
      vertex -2.5 -2.5 1.5
      vertex -1.37032 -0.610105 1.5
    endloop
  endfacet
  facet normal 1.99286e-007 7.05688e-008 1
    outer loop
      vertex -1.42658 -0.463525 1.5
      vertex -2.5 -2.5 1.5
      vertex -1.40037 -0.537552 1.5
    endloop
  endfacet
  facet normal -9.53674e-007 -1 -0
    outer loop
      vertex -2.5 -2.5 1.5
      vertex -2.5 -2.5 1.4
      vertex -1.5 -2.5 0
    endloop
  endfacet
  facet normal 1 0 0
    outer loop
      vertex 2.5 -2.5 1.5
      vertex 2.5 2.5 1.4
      vertex 2.5 2.5 1.5
    endloop
  endfacet
  facet normal 1 0 0
    outer loop
      vertex 2.5 2.5 1.4
      vertex 2.5 -2.5 1.5
      vertex 2.5 -2.5 1.4
    endloop
  endfacet
  facet normal 9.53674e-007 -1 0
    outer loop
      vertex 2.5 -2.5 1.5
      vertex 1.5 -2.5 0
      vertex 2.5 -2.5 1.4
    endloop
  endfacet
  facet normal 0 1 0
    outer loop
      vertex 1.5 2.5 0
      vertex 2.5 2.5 1.5
      vertex 2.5 2.5 1.4
    endloop
  endfacet
  facet normal 0 1 0
    outer loop
      vertex 2.5 2.5 1.5
      vertex 1.5 2.5 0
      vertex -2.5 2.5 1.5
    endloop
  endfacet
  facet normal 0 1 -0
    outer loop
      vertex -1.5 2.5 0
      vertex -2.5 2.5 1.5
      vertex 1.5 2.5 0
    endloop
  endfacet
  facet normal 0 1 0
    outer loop
      vertex -2.5 2.5 1.5
      vertex -1.5 2.5 0
      vertex -2.5 2.5 1.4
    endloop
  endfacet
  facet normal -0.813733 0 -0.581238
    outer loop
      vertex -1.5 2.5 0
      vertex -2.5 -2.5 1.4
      vertex -2.5 2.5 1.4
    endloop
  endfacet
  facet normal -0.813733 0 -0.581238
    outer loop
      vertex -2.5 -2.5 1.4
      vertex -1.5 2.5 0
      vertex -1.5 -2.5 0
    endloop
  endfacet
  facet normal -0.333799 -0.942644 0
    outer loop
      vertex -0.537552 -1.40037 1.5
      vertex -0.463525 -1.42658 2.5
      vertex -0.537552 -1.40037 2.5
    endloop
  endfacet
  facet normal -0.333799 -0.942644 -0
    outer loop
      vertex -0.463525 -1.42658 2.5
      vertex -0.537552 -1.40037 1.5
      vertex -0.463525 -1.42658 1.5
    endloop
  endfacet
  facet normal -0.333799 0.942644 0
    outer loop
      vertex -0.463525 1.42658 1.5
      vertex -0.537552 1.40037 2.5
      vertex -0.463525 1.42658 2.5
    endloop
  endfacet
  facet normal -0.333799 0.942644 0
    outer loop
      vertex -0.537552 1.40037 2.5
      vertex -0.463525 1.42658 1.5
      vertex -0.537552 1.40037 1.5
    endloop
  endfacet
  facet normal -0.923876 -0.382693 0
    outer loop
      vertex -1.37032 -0.610105 1.5
      vertex -1.40037 -0.537552 2.5
      vertex -1.40037 -0.537552 1.5
    endloop
  endfacet
  facet normal -0.923876 -0.382693 0
    outer loop
      vertex -1.40037 -0.537552 2.5
      vertex -1.37032 -0.610105 1.5
      vertex -1.37032 -0.610105 2.5
    endloop
  endfacet
  facet normal 0.958821 0.284013 0
    outer loop
      vertex 1.44889 0.388228 2.5
      vertex 1.42658 0.463525 1.5
      vertex 1.42658 0.463525 2.5
    endloop
  endfacet
  facet normal 0.958821 0.284013 0
    outer loop
      vertex 1.42658 0.463525 1.5
      vertex 1.44889 0.388228 2.5
      vertex 1.44889 0.388228 1.5
    endloop
  endfacet
  facet normal 0.793352 0.608764 0
    outer loop
      vertex 1.21352 0.881678 2.5
      vertex 1.16572 0.94398 1.5
      vertex 1.16572 0.94398 2.5
    endloop
  endfacet
  facet normal 0.793352 0.608764 0
    outer loop
      vertex 1.16572 0.94398 1.5
      vertex 1.21352 0.881678 2.5
      vertex 1.21352 0.881678 1.5
    endloop
  endfacet
  facet normal 0.477158 0.878817 -0
    outer loop
      vertex 0.75 1.29904 1.5
      vertex 0.680985 1.33651 2.5
      vertex 0.75 1.29904 2.5
    endloop
  endfacet
  facet normal 0.477158 0.878817 0
    outer loop
      vertex 0.680985 1.33651 2.5
      vertex 0.75 1.29904 1.5
      vertex 0.680985 1.33651 1.5
    endloop
  endfacet
  facet normal 0.0784617 0.996917 -0
    outer loop
      vertex 0.156793 1.49178 1.5
      vertex 0.0785036 1.49794 2.5
      vertex 0.156793 1.49178 2.5
    endloop
  endfacet
  facet normal 0.0784617 0.996917 0
    outer loop
      vertex 0.0785036 1.49794 2.5
      vertex 0.156793 1.49178 1.5
      vertex 0.0785036 1.49794 1.5
    endloop
  endfacet
  facet normal -0.996917 0.0784617 0
    outer loop
      vertex -1.49794 0.0785036 1.5
      vertex -1.49178 0.156793 2.5
      vertex -1.49178 0.156793 1.5
    endloop
  endfacet
  facet normal -0.996917 0.0784617 0
    outer loop
      vertex -1.49178 0.156793 2.5
      vertex -1.49794 0.0785036 1.5
      vertex -1.49794 0.0785036 2.5
    endloop
  endfacet
  facet normal -0.902589 0.430504 0
    outer loop
      vertex -1.37032 0.610105 1.5
      vertex -1.33651 0.680985 2.5
      vertex -1.33651 0.680985 1.5
    endloop
  endfacet
  facet normal -0.902589 0.430504 0
    outer loop
      vertex -1.33651 0.680985 2.5
      vertex -1.37032 0.610105 1.5
      vertex -1.37032 0.610105 2.5
    endloop
  endfacet
  facet normal -0.566407 0.824126 0
    outer loop
      vertex -0.816958 1.25801 1.5
      vertex -0.881678 1.21352 2.5
      vertex -0.816958 1.25801 2.5
    endloop
  endfacet
  facet normal -0.566407 0.824126 0
    outer loop
      vertex -0.881678 1.21352 2.5
      vertex -0.816958 1.25801 1.5
      vertex -0.881678 1.21352 1.5
    endloop
  endfacet
  facet normal 0.999657 -0.0261825 0
    outer loop
      vertex 1.49794 -0.0785036 2.5
      vertex 1.5 0 1.5
      vertex 1.5 0 2.5
    endloop
  endfacet
  facet normal 0.999657 -0.0261825 0
    outer loop
      vertex 1.5 0 1.5
      vertex 1.49794 -0.0785036 2.5
      vertex 1.49794 -0.0785036 1.5
    endloop
  endfacet
  facet normal 0.902589 -0.430504 0
    outer loop
      vertex 1.33651 -0.680985 2.5
      vertex 1.37032 -0.610105 1.5
      vertex 1.37032 -0.610105 2.5
    endloop
  endfacet
  facet normal 0.902589 -0.430504 0
    outer loop
      vertex 1.37032 -0.610105 1.5
      vertex 1.33651 -0.680985 2.5
      vertex 1.33651 -0.680985 1.5
    endloop
  endfacet
  facet normal 0.233453 -0.972368 0
    outer loop
      vertex 0.311867 -1.46722 1.5
      vertex 0.388228 -1.44889 2.5
      vertex 0.311867 -1.46722 2.5
    endloop
  endfacet
  facet normal 0.233453 -0.972368 0
    outer loop
      vertex 0.388228 -1.44889 2.5
      vertex 0.311867 -1.46722 1.5
      vertex 0.388228 -1.44889 1.5
    endloop
  endfacet
  facet normal 0.688357 -0.725372 0
    outer loop
      vertex 1.0037 -1.11472 1.5
      vertex 1.06066 -1.06066 2.5
      vertex 1.0037 -1.11472 2.5
    endloop
  endfacet
  facet normal 0.688357 -0.725372 0
    outer loop
      vertex 1.06066 -1.06066 2.5
      vertex 1.0037 -1.11472 1.5
      vertex 1.06066 -1.06066 1.5
    endloop
  endfacet
  facet normal 0.85264 0.522499 0
    outer loop
      vertex 1.29904 0.749999 2.5
      vertex 1.25801 0.816958 1.5
      vertex 1.25801 0.816958 2.5
    endloop
  endfacet
  facet normal 0.85264 0.522499 0
    outer loop
      vertex 1.25801 0.816958 1.5
      vertex 1.29904 0.749999 2.5
      vertex 1.29904 0.749999 1.5
    endloop
  endfacet
  facet normal 0.824126 0.566407 0
    outer loop
      vertex 1.25801 0.816958 2.5
      vertex 1.21352 0.881678 1.5
      vertex 1.21352 0.881678 2.5
    endloop
  endfacet
  facet normal 0.824126 0.566407 0
    outer loop
      vertex 1.21352 0.881678 1.5
      vertex 1.25801 0.816958 2.5
      vertex 1.25801 0.816958 1.5
    endloop
  endfacet
  facet normal 0.233453 0.972368 -0
    outer loop
      vertex 0.388228 1.44889 1.5
      vertex 0.311867 1.46722 2.5
      vertex 0.388228 1.44889 2.5
    endloop
  endfacet
  facet normal 0.233453 0.972368 0
    outer loop
      vertex 0.311867 1.46722 2.5
      vertex 0.388228 1.44889 1.5
      vertex 0.311867 1.46722 1.5
    endloop
  endfacet
  facet normal 0.566407 0.824126 -0
    outer loop
      vertex 0.881678 1.21352 1.5
      vertex 0.816958 1.25801 2.5
      vertex 0.881678 1.21352 2.5
    endloop
  endfacet
  facet normal 0.566407 0.824126 0
    outer loop
      vertex 0.816958 1.25801 2.5
      vertex 0.881678 1.21352 1.5
      vertex 0.816958 1.25801 1.5
    endloop
  endfacet
  facet normal 0.333799 0.942644 -0
    outer loop
      vertex 0.537552 1.40037 1.5
      vertex 0.463525 1.42658 2.5
      vertex 0.537552 1.40037 2.5
    endloop
  endfacet
  facet normal 0.333799 0.942644 0
    outer loop
      vertex 0.463525 1.42658 2.5
      vertex 0.537552 1.40037 1.5
      vertex 0.463525 1.42658 1.5
    endloop
  endfacet
  facet normal 0.130523 0.991445 -0
    outer loop
      vertex 0.234652 1.48153 1.5
      vertex 0.156793 1.49178 2.5
      vertex 0.234652 1.48153 2.5
    endloop
  endfacet
  facet normal 0.130523 0.991445 0
    outer loop
      vertex 0.156793 1.49178 2.5
      vertex 0.234652 1.48153 1.5
      vertex 0.156793 1.49178 1.5
    endloop
  endfacet
  facet normal -0.972368 0.233453 0
    outer loop
      vertex -1.46722 0.311867 1.5
      vertex -1.44889 0.388228 2.5
      vertex -1.44889 0.388228 1.5
    endloop
  endfacet
  facet normal -0.972368 0.233453 0
    outer loop
      vertex -1.44889 0.388228 2.5
      vertex -1.46722 0.311867 1.5
      vertex -1.46722 0.311867 2.5
    endloop
  endfacet
  facet normal -0.942644 0.333799 0
    outer loop
      vertex -1.42658 0.463525 1.5
      vertex -1.40037 0.537552 2.5
      vertex -1.40037 0.537552 1.5
    endloop
  endfacet
  facet normal -0.942644 0.333799 0
    outer loop
      vertex -1.40037 0.537552 2.5
      vertex -1.42658 0.463525 1.5
      vertex -1.42658 0.463525 2.5
    endloop
  endfacet
  facet normal -0.991445 0.130523 0
    outer loop
      vertex -1.49178 0.156793 1.5
      vertex -1.48153 0.234652 2.5
      vertex -1.48153 0.234652 1.5
    endloop
  endfacet
  facet normal -0.991445 0.130523 0
    outer loop
      vertex -1.48153 0.234652 2.5
      vertex -1.49178 0.156793 1.5
      vertex -1.49178 0.156793 2.5
    endloop
  endfacet
  facet normal -0.760407 0.649447 0
    outer loop
      vertex -1.16572 0.94398 1.5
      vertex -1.11472 1.0037 2.5
      vertex -1.11472 1.0037 1.5
    endloop
  endfacet
  facet normal -0.760407 0.649447 0
    outer loop
      vertex -1.11472 1.0037 2.5
      vertex -1.16572 0.94398 1.5
      vertex -1.16572 0.94398 2.5
    endloop
  endfacet
  facet normal -0.878815 0.477163 0
    outer loop
      vertex -1.33651 0.680985 1.5
      vertex -1.29904 0.749999 2.5
      vertex -1.29904 0.749999 1.5
    endloop
  endfacet
  facet normal -0.878815 0.477163 0
    outer loop
      vertex -1.29904 0.749999 2.5
      vertex -1.33651 0.680985 1.5
      vertex -1.33651 0.680985 2.5
    endloop
  endfacet
  facet normal -0.0784617 0.996917 0
    outer loop
      vertex -0.0785036 1.49794 1.5
      vertex -0.156793 1.49178 2.5
      vertex -0.0785036 1.49794 2.5
    endloop
  endfacet
  facet normal -0.0784617 0.996917 0
    outer loop
      vertex -0.156793 1.49178 2.5
      vertex -0.0785036 1.49794 1.5
      vertex -0.156793 1.49178 1.5
    endloop
  endfacet
  facet normal -0.284013 0.958821 0
    outer loop
      vertex -0.388228 1.44889 1.5
      vertex -0.463525 1.42658 2.5
      vertex -0.388228 1.44889 2.5
    endloop
  endfacet
  facet normal -0.284013 0.958821 0
    outer loop
      vertex -0.463525 1.42658 2.5
      vertex -0.388228 1.44889 1.5
      vertex -0.463525 1.42658 1.5
    endloop
  endfacet
  facet normal -0.430504 0.902589 0
    outer loop
      vertex -0.610105 1.37032 1.5
      vertex -0.680985 1.33651 2.5
      vertex -0.610105 1.37032 2.5
    endloop
  endfacet
  facet normal -0.430504 0.902589 0
    outer loop
      vertex -0.680985 1.33651 2.5
      vertex -0.610105 1.37032 1.5
      vertex -0.680985 1.33651 1.5
    endloop
  endfacet
  facet normal -0.0784617 -0.996917 0
    outer loop
      vertex -0.156793 -1.49178 1.5
      vertex -0.0785036 -1.49794 2.5
      vertex -0.156793 -1.49178 2.5
    endloop
  endfacet
  facet normal -0.0784617 -0.996917 -0
    outer loop
      vertex -0.0785036 -1.49794 2.5
      vertex -0.156793 -1.49178 1.5
      vertex -0.0785036 -1.49794 1.5
    endloop
  endfacet
  facet normal 0.996917 0.0784617 0
    outer loop
      vertex 1.49794 0.0785036 2.5
      vertex 1.49178 0.156793 1.5
      vertex 1.49178 0.156793 2.5
    endloop
  endfacet
  facet normal 0.996917 0.0784617 0
    outer loop
      vertex 1.49178 0.156793 1.5
      vertex 1.49794 0.0785036 2.5
      vertex 1.49794 0.0785036 1.5
    endloop
  endfacet
  facet normal 0.942644 0.333799 0
    outer loop
      vertex 1.42658 0.463525 2.5
      vertex 1.40037 0.537552 1.5
      vertex 1.40037 0.537552 2.5
    endloop
  endfacet
  facet normal 0.942644 0.333799 0
    outer loop
      vertex 1.40037 0.537552 1.5
      vertex 1.42658 0.463525 2.5
      vertex 1.42658 0.463525 1.5
    endloop
  endfacet
  facet normal 0.902589 0.430504 0
    outer loop
      vertex 1.37032 0.610105 2.5
      vertex 1.33651 0.680985 1.5
      vertex 1.33651 0.680985 2.5
    endloop
  endfacet
  facet normal 0.902589 0.430504 0
    outer loop
      vertex 1.33651 0.680985 1.5
      vertex 1.37032 0.610105 2.5
      vertex 1.37032 0.610105 1.5
    endloop
  endfacet
  facet normal 0.923876 0.382693 0
    outer loop
      vertex 1.40037 0.537552 2.5
      vertex 1.37032 0.610105 1.5
      vertex 1.37032 0.610105 2.5
    endloop
  endfacet
  facet normal 0.923876 0.382693 0
    outer loop
      vertex 1.37032 0.610105 1.5
      vertex 1.40037 0.537552 2.5
      vertex 1.40037 0.537552 1.5
    endloop
  endfacet
  facet normal 0.878815 0.477163 0
    outer loop
      vertex 1.33651 0.680985 2.5
      vertex 1.29904 0.749999 1.5
      vertex 1.29904 0.749999 2.5
    endloop
  endfacet
  facet normal 0.878815 0.477163 0
    outer loop
      vertex 1.29904 0.749999 1.5
      vertex 1.33651 0.680985 2.5
      vertex 1.33651 0.680985 1.5
    endloop
  endfacet
  facet normal 0.760407 0.649447 0
    outer loop
      vertex 1.16572 0.94398 2.5
      vertex 1.11472 1.0037 1.5
      vertex 1.11472 1.0037 2.5
    endloop
  endfacet
  facet normal 0.760407 0.649447 0
    outer loop
      vertex 1.11472 1.0037 1.5
      vertex 1.16572 0.94398 2.5
      vertex 1.16572 0.94398 1.5
    endloop
  endfacet
  facet normal 0.688357 0.725372 -0
    outer loop
      vertex 1.06066 1.06066 1.5
      vertex 1.0037 1.11472 2.5
      vertex 1.06066 1.06066 2.5
    endloop
  endfacet
  facet normal 0.688357 0.725372 0
    outer loop
      vertex 1.0037 1.11472 2.5
      vertex 1.06066 1.06066 1.5
      vertex 1.0037 1.11472 1.5
    endloop
  endfacet
  facet normal 0.725372 0.688357 0
    outer loop
      vertex 1.11472 1.0037 2.5
      vertex 1.06066 1.06066 1.5
      vertex 1.06066 1.06066 2.5
    endloop
  endfacet
  facet normal 0.725372 0.688357 0
    outer loop
      vertex 1.06066 1.06066 1.5
      vertex 1.11472 1.0037 2.5
      vertex 1.11472 1.0037 1.5
    endloop
  endfacet
  facet normal 0.649447 0.760407 -0
    outer loop
      vertex 1.0037 1.11472 1.5
      vertex 0.94398 1.16572 2.5
      vertex 1.0037 1.11472 2.5
    endloop
  endfacet
  facet normal 0.649447 0.760407 0
    outer loop
      vertex 0.94398 1.16572 2.5
      vertex 1.0037 1.11472 1.5
      vertex 0.94398 1.16572 1.5
    endloop
  endfacet
  facet normal 0.0261825 0.999657 -0
    outer loop
      vertex 0.0785036 1.49794 1.5
      vertex 0 1.5 2.5
      vertex 0.0785036 1.49794 2.5
    endloop
  endfacet
  facet normal 0.0261825 0.999657 0
    outer loop
      vertex 0 1.5 2.5
      vertex 0.0785036 1.49794 1.5
      vertex 0 1.5 1.5
    endloop
  endfacet
  facet normal 0.522504 0.852637 -0
    outer loop
      vertex 0.816958 1.25801 1.5
      vertex 0.75 1.29904 2.5
      vertex 0.816958 1.25801 2.5
    endloop
  endfacet
  facet normal 0.522504 0.852637 0
    outer loop
      vertex 0.75 1.29904 2.5
      vertex 0.816958 1.25801 1.5
      vertex 0.75 1.29904 1.5
    endloop
  endfacet
  facet normal 0.608764 0.793352 -0
    outer loop
      vertex 0.94398 1.16572 1.5
      vertex 0.881678 1.21352 2.5
      vertex 0.94398 1.16572 2.5
    endloop
  endfacet
  facet normal 0.608764 0.793352 0
    outer loop
      vertex 0.881678 1.21352 2.5
      vertex 0.94398 1.16572 1.5
      vertex 0.881678 1.21352 1.5
    endloop
  endfacet
  facet normal 0.382693 0.923876 -0
    outer loop
      vertex 0.610105 1.37032 1.5
      vertex 0.537552 1.40037 2.5
      vertex 0.610105 1.37032 2.5
    endloop
  endfacet
  facet normal 0.382693 0.923876 0
    outer loop
      vertex 0.537552 1.40037 2.5
      vertex 0.610105 1.37032 1.5
      vertex 0.537552 1.40037 1.5
    endloop
  endfacet
  facet normal 0.430504 0.902589 -0
    outer loop
      vertex 0.680985 1.33651 1.5
      vertex 0.610105 1.37032 2.5
      vertex 0.680985 1.33651 2.5
    endloop
  endfacet
  facet normal 0.430504 0.902589 0
    outer loop
      vertex 0.610105 1.37032 2.5
      vertex 0.680985 1.33651 1.5
      vertex 0.610105 1.37032 1.5
    endloop
  endfacet
  facet normal 0.284013 0.958821 -0
    outer loop
      vertex 0.463525 1.42658 1.5
      vertex 0.388228 1.44889 2.5
      vertex 0.463525 1.42658 2.5
    endloop
  endfacet
  facet normal 0.284013 0.958821 0
    outer loop
      vertex 0.388228 1.44889 2.5
      vertex 0.463525 1.42658 1.5
      vertex 0.388228 1.44889 1.5
    endloop
  endfacet
  facet normal 0.182234 0.983255 -0
    outer loop
      vertex 0.311867 1.46722 1.5
      vertex 0.234652 1.48153 2.5
      vertex 0.311867 1.46722 2.5
    endloop
  endfacet
  facet normal 0.182234 0.983255 0
    outer loop
      vertex 0.234652 1.48153 2.5
      vertex 0.311867 1.46722 1.5
      vertex 0.234652 1.48153 1.5
    endloop
  endfacet
  facet normal -0.999657 0.0261825 0
    outer loop
      vertex -1.5 0 1.5
      vertex -1.49794 0.0785036 2.5
      vertex -1.49794 0.0785036 1.5
    endloop
  endfacet
  facet normal -0.999657 0.0261825 0
    outer loop
      vertex -1.49794 0.0785036 2.5
      vertex -1.5 0 1.5
      vertex -1.5 0 2.5
    endloop
  endfacet
  facet normal -0.958821 0.284013 0
    outer loop
      vertex -1.44889 0.388228 1.5
      vertex -1.42658 0.463525 2.5
      vertex -1.42658 0.463525 1.5
    endloop
  endfacet
  facet normal -0.958821 0.284013 0
    outer loop
      vertex -1.42658 0.463525 2.5
      vertex -1.44889 0.388228 1.5
      vertex -1.44889 0.388228 2.5
    endloop
  endfacet
  facet normal -0.983255 0.182234 0
    outer loop
      vertex -1.48153 0.234652 1.5
      vertex -1.46722 0.311867 2.5
      vertex -1.46722 0.311867 1.5
    endloop
  endfacet
  facet normal -0.983255 0.182234 0
    outer loop
      vertex -1.46722 0.311867 2.5
      vertex -1.48153 0.234652 1.5
      vertex -1.48153 0.234652 2.5
    endloop
  endfacet
  facet normal -0.923876 0.382693 0
    outer loop
      vertex -1.40037 0.537552 1.5
      vertex -1.37032 0.610105 2.5
      vertex -1.37032 0.610105 1.5
    endloop
  endfacet
  facet normal -0.923876 0.382693 0
    outer loop
      vertex -1.37032 0.610105 2.5
      vertex -1.40037 0.537552 1.5
      vertex -1.40037 0.537552 2.5
    endloop
  endfacet
  facet normal -0.85264 0.522499 0
    outer loop
      vertex -1.29904 0.749999 1.5
      vertex -1.25801 0.816958 2.5
      vertex -1.25801 0.816958 1.5
    endloop
  endfacet
  facet normal -0.85264 0.522499 0
    outer loop
      vertex -1.25801 0.816958 2.5
      vertex -1.29904 0.749999 1.5
      vertex -1.29904 0.749999 2.5
    endloop
  endfacet
  facet normal -0.793352 0.608764 0
    outer loop
      vertex -1.21352 0.881678 1.5
      vertex -1.16572 0.94398 2.5
      vertex -1.16572 0.94398 1.5
    endloop
  endfacet
  facet normal -0.793352 0.608764 0
    outer loop
      vertex -1.16572 0.94398 2.5
      vertex -1.21352 0.881678 1.5
      vertex -1.21352 0.881678 2.5
    endloop
  endfacet
  facet normal -0.725372 0.688357 0
    outer loop
      vertex -1.11472 1.0037 1.5
      vertex -1.06066 1.06066 2.5
      vertex -1.06066 1.06066 1.5
    endloop
  endfacet
  facet normal -0.725372 0.688357 0
    outer loop
      vertex -1.06066 1.06066 2.5
      vertex -1.11472 1.0037 1.5
      vertex -1.11472 1.0037 2.5
    endloop
  endfacet
  facet normal -0.824126 0.566407 0
    outer loop
      vertex -1.25801 0.816958 1.5
      vertex -1.21352 0.881678 2.5
      vertex -1.21352 0.881678 1.5
    endloop
  endfacet
  facet normal -0.824126 0.566407 0
    outer loop
      vertex -1.21352 0.881678 2.5
      vertex -1.25801 0.816958 1.5
      vertex -1.25801 0.816958 2.5
    endloop
  endfacet
  facet normal -0.233453 0.972368 0
    outer loop
      vertex -0.311867 1.46722 1.5
      vertex -0.388228 1.44889 2.5
      vertex -0.311867 1.46722 2.5
    endloop
  endfacet
  facet normal -0.233453 0.972368 0
    outer loop
      vertex -0.388228 1.44889 2.5
      vertex -0.311867 1.46722 1.5
      vertex -0.388228 1.44889 1.5
    endloop
  endfacet
  facet normal -0.130523 0.991445 0
    outer loop
      vertex -0.156793 1.49178 1.5
      vertex -0.234652 1.48153 2.5
      vertex -0.156793 1.49178 2.5
    endloop
  endfacet
  facet normal -0.130523 0.991445 0
    outer loop
      vertex -0.234652 1.48153 2.5
      vertex -0.156793 1.49178 1.5
      vertex -0.234652 1.48153 1.5
    endloop
  endfacet
  facet normal -0.0261825 0.999657 0
    outer loop
      vertex 0 1.5 1.5
      vertex -0.0785036 1.49794 2.5
      vertex 0 1.5 2.5
    endloop
  endfacet
  facet normal -0.0261825 0.999657 0
    outer loop
      vertex -0.0785036 1.49794 2.5
      vertex 0 1.5 1.5
      vertex -0.0785036 1.49794 1.5
    endloop
  endfacet
  facet normal -0.182234 0.983255 0
    outer loop
      vertex -0.234652 1.48153 1.5
      vertex -0.311867 1.46722 2.5
      vertex -0.234652 1.48153 2.5
    endloop
  endfacet
  facet normal -0.182234 0.983255 0
    outer loop
      vertex -0.311867 1.46722 2.5
      vertex -0.234652 1.48153 1.5
      vertex -0.311867 1.46722 1.5
    endloop
  endfacet
  facet normal -0.477163 0.878815 0
    outer loop
      vertex -0.680985 1.33651 1.5
      vertex -0.749999 1.29904 2.5
      vertex -0.680985 1.33651 2.5
    endloop
  endfacet
  facet normal -0.477163 0.878815 0
    outer loop
      vertex -0.749999 1.29904 2.5
      vertex -0.680985 1.33651 1.5
      vertex -0.749999 1.29904 1.5
    endloop
  endfacet
  facet normal -0.382693 0.923876 0
    outer loop
      vertex -0.537552 1.40037 1.5
      vertex -0.610105 1.37032 2.5
      vertex -0.537552 1.40037 2.5
    endloop
  endfacet
  facet normal -0.382693 0.923876 0
    outer loop
      vertex -0.610105 1.37032 2.5
      vertex -0.537552 1.40037 1.5
      vertex -0.610105 1.37032 1.5
    endloop
  endfacet
  facet normal -0.522499 0.85264 0
    outer loop
      vertex -0.749999 1.29904 1.5
      vertex -0.816958 1.25801 2.5
      vertex -0.749999 1.29904 2.5
    endloop
  endfacet
  facet normal -0.522499 0.85264 0
    outer loop
      vertex -0.816958 1.25801 2.5
      vertex -0.749999 1.29904 1.5
      vertex -0.816958 1.25801 1.5
    endloop
  endfacet
  facet normal -0.608764 0.793352 0
    outer loop
      vertex -0.881678 1.21352 1.5
      vertex -0.94398 1.16572 2.5
      vertex -0.881678 1.21352 2.5
    endloop
  endfacet
  facet normal -0.608764 0.793352 0
    outer loop
      vertex -0.94398 1.16572 2.5
      vertex -0.881678 1.21352 1.5
      vertex -0.94398 1.16572 1.5
    endloop
  endfacet
  facet normal -0.688357 0.725372 0
    outer loop
      vertex -1.0037 1.11472 1.5
      vertex -1.06066 1.06066 2.5
      vertex -1.0037 1.11472 2.5
    endloop
  endfacet
  facet normal -0.688357 0.725372 0
    outer loop
      vertex -1.06066 1.06066 2.5
      vertex -1.0037 1.11472 1.5
      vertex -1.06066 1.06066 1.5
    endloop
  endfacet
  facet normal -0.649447 0.760407 0
    outer loop
      vertex -0.94398 1.16572 1.5
      vertex -1.0037 1.11472 2.5
      vertex -0.94398 1.16572 2.5
    endloop
  endfacet
  facet normal -0.649447 0.760407 0
    outer loop
      vertex -1.0037 1.11472 2.5
      vertex -0.94398 1.16572 1.5
      vertex -1.0037 1.11472 1.5
    endloop
  endfacet
  facet normal 0.999657 0.0261825 0
    outer loop
      vertex 1.5 0 2.5
      vertex 1.49794 0.0785036 1.5
      vertex 1.49794 0.0785036 2.5
    endloop
  endfacet
  facet normal 0.999657 0.0261825 0
    outer loop
      vertex 1.49794 0.0785036 1.5
      vertex 1.5 0 2.5
      vertex 1.5 0 1.5
    endloop
  endfacet
  facet normal 0.0261825 -0.999657 0
    outer loop
      vertex 0 -1.5 1.5
      vertex 0.0785036 -1.49794 2.5
      vertex 0 -1.5 2.5
    endloop
  endfacet
  facet normal 0.0261825 -0.999657 0
    outer loop
      vertex 0.0785036 -1.49794 2.5
      vertex 0 -1.5 1.5
      vertex 0.0785036 -1.49794 1.5
    endloop
  endfacet
  facet normal 0.942644 -0.333799 0
    outer loop
      vertex 1.40037 -0.537552 2.5
      vertex 1.42658 -0.463525 1.5
      vertex 1.42658 -0.463525 2.5
    endloop
  endfacet
  facet normal 0.942644 -0.333799 0
    outer loop
      vertex 1.42658 -0.463525 1.5
      vertex 1.40037 -0.537552 2.5
      vertex 1.40037 -0.537552 1.5
    endloop
  endfacet
  facet normal 0.972368 -0.233453 0
    outer loop
      vertex 1.44889 -0.388228 2.5
      vertex 1.46722 -0.311867 1.5
      vertex 1.46722 -0.311867 2.5
    endloop
  endfacet
  facet normal 0.972368 -0.233453 0
    outer loop
      vertex 1.46722 -0.311867 1.5
      vertex 1.44889 -0.388228 2.5
      vertex 1.44889 -0.388228 1.5
    endloop
  endfacet
  facet normal 0.991445 -0.130523 0
    outer loop
      vertex 1.48153 -0.234652 2.5
      vertex 1.49178 -0.156793 1.5
      vertex 1.49178 -0.156793 2.5
    endloop
  endfacet
  facet normal 0.991445 -0.130523 0
    outer loop
      vertex 1.49178 -0.156793 1.5
      vertex 1.48153 -0.234652 2.5
      vertex 1.48153 -0.234652 1.5
    endloop
  endfacet
  facet normal 0.130523 -0.991445 0
    outer loop
      vertex 0.156793 -1.49178 1.5
      vertex 0.234652 -1.48153 2.5
      vertex 0.156793 -1.49178 2.5
    endloop
  endfacet
  facet normal 0.130523 -0.991445 0
    outer loop
      vertex 0.234652 -1.48153 2.5
      vertex 0.156793 -1.49178 1.5
      vertex 0.234652 -1.48153 1.5
    endloop
  endfacet
  facet normal 0.333799 -0.942644 0
    outer loop
      vertex 0.463525 -1.42658 1.5
      vertex 0.537552 -1.40037 2.5
      vertex 0.463525 -1.42658 2.5
    endloop
  endfacet
  facet normal 0.333799 -0.942644 0
    outer loop
      vertex 0.537552 -1.40037 2.5
      vertex 0.463525 -1.42658 1.5
      vertex 0.537552 -1.40037 1.5
    endloop
  endfacet
  facet normal 0.608764 -0.793352 0
    outer loop
      vertex 0.881678 -1.21352 1.5
      vertex 0.94398 -1.16572 2.5
      vertex 0.881678 -1.21352 2.5
    endloop
  endfacet
  facet normal 0.608764 -0.793352 0
    outer loop
      vertex 0.94398 -1.16572 2.5
      vertex 0.881678 -1.21352 1.5
      vertex 0.94398 -1.16572 1.5
    endloop
  endfacet
  facet normal 0.522504 -0.852637 0
    outer loop
      vertex 0.75 -1.29904 1.5
      vertex 0.816958 -1.25801 2.5
      vertex 0.75 -1.29904 2.5
    endloop
  endfacet
  facet normal 0.522504 -0.852637 0
    outer loop
      vertex 0.816958 -1.25801 2.5
      vertex 0.75 -1.29904 1.5
      vertex 0.816958 -1.25801 1.5
    endloop
  endfacet
  facet normal 0.430504 -0.902589 0
    outer loop
      vertex 0.610105 -1.37032 1.5
      vertex 0.680985 -1.33651 2.5
      vertex 0.610105 -1.37032 2.5
    endloop
  endfacet
  facet normal 0.430504 -0.902589 0
    outer loop
      vertex 0.680985 -1.33651 2.5
      vertex 0.610105 -1.37032 1.5
      vertex 0.680985 -1.33651 1.5
    endloop
  endfacet
  facet normal 0.923876 -0.382693 0
    outer loop
      vertex 1.37032 -0.610105 2.5
      vertex 1.40037 -0.537552 1.5
      vertex 1.40037 -0.537552 2.5
    endloop
  endfacet
  facet normal 0.923876 -0.382693 0
    outer loop
      vertex 1.40037 -0.537552 1.5
      vertex 1.37032 -0.610105 2.5
      vertex 1.37032 -0.610105 1.5
    endloop
  endfacet
  facet normal 0.85264 -0.522499 0
    outer loop
      vertex 1.25801 -0.816958 2.5
      vertex 1.29904 -0.749999 1.5
      vertex 1.29904 -0.749999 2.5
    endloop
  endfacet
  facet normal 0.85264 -0.522499 0
    outer loop
      vertex 1.29904 -0.749999 1.5
      vertex 1.25801 -0.816958 2.5
      vertex 1.25801 -0.816958 1.5
    endloop
  endfacet
  facet normal 0.824126 -0.566407 0
    outer loop
      vertex 1.21352 -0.881678 2.5
      vertex 1.25801 -0.816958 1.5
      vertex 1.25801 -0.816958 2.5
    endloop
  endfacet
  facet normal 0.824126 -0.566407 0
    outer loop
      vertex 1.25801 -0.816958 1.5
      vertex 1.21352 -0.881678 2.5
      vertex 1.21352 -0.881678 1.5
    endloop
  endfacet
  facet normal 0.760407 -0.649447 0
    outer loop
      vertex 1.11472 -1.0037 2.5
      vertex 1.16572 -0.94398 1.5
      vertex 1.16572 -0.94398 2.5
    endloop
  endfacet
  facet normal 0.760407 -0.649447 0
    outer loop
      vertex 1.16572 -0.94398 1.5
      vertex 1.11472 -1.0037 2.5
      vertex 1.11472 -1.0037 1.5
    endloop
  endfacet
  facet normal -0.284013 -0.958821 0
    outer loop
      vertex -0.463525 -1.42658 1.5
      vertex -0.388228 -1.44889 2.5
      vertex -0.463525 -1.42658 2.5
    endloop
  endfacet
  facet normal -0.284013 -0.958821 -0
    outer loop
      vertex -0.388228 -1.44889 2.5
      vertex -0.463525 -1.42658 1.5
      vertex -0.388228 -1.44889 1.5
    endloop
  endfacet
  facet normal -0.182234 -0.983255 0
    outer loop
      vertex -0.311867 -1.46722 1.5
      vertex -0.234652 -1.48153 2.5
      vertex -0.311867 -1.46722 2.5
    endloop
  endfacet
  facet normal -0.182234 -0.983255 -0
    outer loop
      vertex -0.234652 -1.48153 2.5
      vertex -0.311867 -1.46722 1.5
      vertex -0.234652 -1.48153 1.5
    endloop
  endfacet
  facet normal -0.608764 -0.793352 0
    outer loop
      vertex -0.94398 -1.16572 1.5
      vertex -0.881678 -1.21352 2.5
      vertex -0.94398 -1.16572 2.5
    endloop
  endfacet
  facet normal -0.608764 -0.793352 -0
    outer loop
      vertex -0.881678 -1.21352 2.5
      vertex -0.94398 -1.16572 1.5
      vertex -0.881678 -1.21352 1.5
    endloop
  endfacet
  facet normal -0.688357 -0.725372 0
    outer loop
      vertex -1.06066 -1.06066 1.5
      vertex -1.0037 -1.11472 2.5
      vertex -1.06066 -1.06066 2.5
    endloop
  endfacet
  facet normal -0.688357 -0.725372 -0
    outer loop
      vertex -1.0037 -1.11472 2.5
      vertex -1.06066 -1.06066 1.5
      vertex -1.0037 -1.11472 1.5
    endloop
  endfacet
  facet normal -0.430504 -0.902589 0
    outer loop
      vertex -0.680985 -1.33651 1.5
      vertex -0.610105 -1.37032 2.5
      vertex -0.680985 -1.33651 2.5
    endloop
  endfacet
  facet normal -0.430504 -0.902589 -0
    outer loop
      vertex -0.610105 -1.37032 2.5
      vertex -0.680985 -1.33651 1.5
      vertex -0.610105 -1.37032 1.5
    endloop
  endfacet
  facet normal -0.522504 -0.852637 0
    outer loop
      vertex -0.816958 -1.25801 1.5
      vertex -0.75 -1.29904 2.5
      vertex -0.816958 -1.25801 2.5
    endloop
  endfacet
  facet normal -0.522504 -0.852637 -0
    outer loop
      vertex -0.75 -1.29904 2.5
      vertex -0.816958 -1.25801 1.5
      vertex -0.75 -1.29904 1.5
    endloop
  endfacet
  facet normal -0.991445 -0.130523 0
    outer loop
      vertex -1.48153 -0.234652 1.5
      vertex -1.49178 -0.156793 2.5
      vertex -1.49178 -0.156793 1.5
    endloop
  endfacet
  facet normal -0.991445 -0.130523 0
    outer loop
      vertex -1.49178 -0.156793 2.5
      vertex -1.48153 -0.234652 1.5
      vertex -1.48153 -0.234652 2.5
    endloop
  endfacet
  facet normal -0.999657 -0.0261825 0
    outer loop
      vertex -1.49794 -0.0785036 1.5
      vertex -1.5 0 2.5
      vertex -1.5 0 1.5
    endloop
  endfacet
  facet normal -0.999657 -0.0261825 0
    outer loop
      vertex -1.5 0 2.5
      vertex -1.49794 -0.0785036 1.5
      vertex -1.49794 -0.0785036 2.5
    endloop
  endfacet
  facet normal -0.942644 -0.333799 0
    outer loop
      vertex -1.40037 -0.537552 1.5
      vertex -1.42658 -0.463525 2.5
      vertex -1.42658 -0.463525 1.5
    endloop
  endfacet
  facet normal -0.942644 -0.333799 0
    outer loop
      vertex -1.42658 -0.463525 2.5
      vertex -1.40037 -0.537552 1.5
      vertex -1.40037 -0.537552 2.5
    endloop
  endfacet
  facet normal -0.972368 -0.233453 0
    outer loop
      vertex -1.44889 -0.388228 1.5
      vertex -1.46722 -0.311867 2.5
      vertex -1.46722 -0.311867 1.5
    endloop
  endfacet
  facet normal -0.972368 -0.233453 0
    outer loop
      vertex -1.46722 -0.311867 2.5
      vertex -1.44889 -0.388228 1.5
      vertex -1.44889 -0.388228 2.5
    endloop
  endfacet
  facet normal -0.878815 -0.477163 0
    outer loop
      vertex -1.29904 -0.749999 1.5
      vertex -1.33651 -0.680985 2.5
      vertex -1.33651 -0.680985 1.5
    endloop
  endfacet
  facet normal -0.878815 -0.477163 0
    outer loop
      vertex -1.33651 -0.680985 2.5
      vertex -1.29904 -0.749999 1.5
      vertex -1.29904 -0.749999 2.5
    endloop
  endfacet
  facet normal -0.824126 -0.566407 0
    outer loop
      vertex -1.21352 -0.881678 1.5
      vertex -1.25801 -0.816958 2.5
      vertex -1.25801 -0.816958 1.5
    endloop
  endfacet
  facet normal -0.824126 -0.566407 0
    outer loop
      vertex -1.25801 -0.816958 2.5
      vertex -1.21352 -0.881678 1.5
      vertex -1.21352 -0.881678 2.5
    endloop
  endfacet
  facet normal -0.760407 -0.649447 0
    outer loop
      vertex -1.11472 -1.0037 1.5
      vertex -1.16572 -0.94398 2.5
      vertex -1.16572 -0.94398 1.5
    endloop
  endfacet
  facet normal -0.760407 -0.649447 0
    outer loop
      vertex -1.16572 -0.94398 2.5
      vertex -1.11472 -1.0037 1.5
      vertex -1.11472 -1.0037 2.5
    endloop
  endfacet
  facet normal 0.972368 0.233453 0
    outer loop
      vertex 1.46722 0.311867 2.5
      vertex 1.44889 0.388228 1.5
      vertex 1.44889 0.388228 2.5
    endloop
  endfacet
  facet normal 0.972368 0.233453 0
    outer loop
      vertex 1.44889 0.388228 1.5
      vertex 1.46722 0.311867 2.5
      vertex 1.46722 0.311867 1.5
    endloop
  endfacet
  facet normal 0.983255 0.182234 0
    outer loop
      vertex 1.48153 0.234652 2.5
      vertex 1.46722 0.311867 1.5
      vertex 1.46722 0.311867 2.5
    endloop
  endfacet
  facet normal 0.983255 0.182234 0
    outer loop
      vertex 1.46722 0.311867 1.5
      vertex 1.48153 0.234652 2.5
      vertex 1.48153 0.234652 1.5
    endloop
  endfacet
  facet normal 0.991445 0.130523 0
    outer loop
      vertex 1.49178 0.156793 2.5
      vertex 1.48153 0.234652 1.5
      vertex 1.48153 0.234652 2.5
    endloop
  endfacet
  facet normal 0.991445 0.130523 0
    outer loop
      vertex 1.48153 0.234652 1.5
      vertex 1.49178 0.156793 2.5
      vertex 1.49178 0.156793 1.5
    endloop
  endfacet
  facet normal 0.958821 -0.284013 0
    outer loop
      vertex 1.42658 -0.463525 2.5
      vertex 1.44889 -0.388228 1.5
      vertex 1.44889 -0.388228 2.5
    endloop
  endfacet
  facet normal 0.958821 -0.284013 0
    outer loop
      vertex 1.44889 -0.388228 1.5
      vertex 1.42658 -0.463525 2.5
      vertex 1.42658 -0.463525 1.5
    endloop
  endfacet
  facet normal 0.983255 -0.182234 0
    outer loop
      vertex 1.46722 -0.311867 2.5
      vertex 1.48153 -0.234652 1.5
      vertex 1.48153 -0.234652 2.5
    endloop
  endfacet
  facet normal 0.983255 -0.182234 0
    outer loop
      vertex 1.48153 -0.234652 1.5
      vertex 1.46722 -0.311867 2.5
      vertex 1.46722 -0.311867 1.5
    endloop
  endfacet
  facet normal 0.996917 -0.0784617 0
    outer loop
      vertex 1.49178 -0.156793 2.5
      vertex 1.49794 -0.0785036 1.5
      vertex 1.49794 -0.0785036 2.5
    endloop
  endfacet
  facet normal 0.996917 -0.0784617 0
    outer loop
      vertex 1.49794 -0.0785036 1.5
      vertex 1.49178 -0.156793 2.5
      vertex 1.49178 -0.156793 1.5
    endloop
  endfacet
  facet normal 0.182234 -0.983255 0
    outer loop
      vertex 0.234652 -1.48153 1.5
      vertex 0.311867 -1.46722 2.5
      vertex 0.234652 -1.48153 2.5
    endloop
  endfacet
  facet normal 0.182234 -0.983255 0
    outer loop
      vertex 0.311867 -1.46722 2.5
      vertex 0.234652 -1.48153 1.5
      vertex 0.311867 -1.46722 1.5
    endloop
  endfacet
  facet normal 0.0784617 -0.996917 0
    outer loop
      vertex 0.0785036 -1.49794 1.5
      vertex 0.156793 -1.49178 2.5
      vertex 0.0785036 -1.49794 2.5
    endloop
  endfacet
  facet normal 0.0784617 -0.996917 0
    outer loop
      vertex 0.156793 -1.49178 2.5
      vertex 0.0785036 -1.49794 1.5
      vertex 0.156793 -1.49178 1.5
    endloop
  endfacet
  facet normal 0.284013 -0.958821 0
    outer loop
      vertex 0.388228 -1.44889 1.5
      vertex 0.463525 -1.42658 2.5
      vertex 0.388228 -1.44889 2.5
    endloop
  endfacet
  facet normal 0.284013 -0.958821 0
    outer loop
      vertex 0.463525 -1.42658 2.5
      vertex 0.388228 -1.44889 1.5
      vertex 0.463525 -1.42658 1.5
    endloop
  endfacet
  facet normal 0.382693 -0.923876 0
    outer loop
      vertex 0.537552 -1.40037 1.5
      vertex 0.610105 -1.37032 2.5
      vertex 0.537552 -1.40037 2.5
    endloop
  endfacet
  facet normal 0.382693 -0.923876 0
    outer loop
      vertex 0.610105 -1.37032 2.5
      vertex 0.537552 -1.40037 1.5
      vertex 0.610105 -1.37032 1.5
    endloop
  endfacet
  facet normal 0.725372 -0.688357 0
    outer loop
      vertex 1.06066 -1.06066 2.5
      vertex 1.11472 -1.0037 1.5
      vertex 1.11472 -1.0037 2.5
    endloop
  endfacet
  facet normal 0.725372 -0.688357 0
    outer loop
      vertex 1.11472 -1.0037 1.5
      vertex 1.06066 -1.06066 2.5
      vertex 1.06066 -1.06066 1.5
    endloop
  endfacet
  facet normal 0.649447 -0.760407 0
    outer loop
      vertex 0.94398 -1.16572 1.5
      vertex 1.0037 -1.11472 2.5
      vertex 0.94398 -1.16572 2.5
    endloop
  endfacet
  facet normal 0.649447 -0.760407 0
    outer loop
      vertex 1.0037 -1.11472 2.5
      vertex 0.94398 -1.16572 1.5
      vertex 1.0037 -1.11472 1.5
    endloop
  endfacet
  facet normal 0.477158 -0.878817 0
    outer loop
      vertex 0.680985 -1.33651 1.5
      vertex 0.75 -1.29904 2.5
      vertex 0.680985 -1.33651 2.5
    endloop
  endfacet
  facet normal 0.477158 -0.878817 0
    outer loop
      vertex 0.75 -1.29904 2.5
      vertex 0.680985 -1.33651 1.5
      vertex 0.75 -1.29904 1.5
    endloop
  endfacet
  facet normal 0.566407 -0.824126 0
    outer loop
      vertex 0.816958 -1.25801 1.5
      vertex 0.881678 -1.21352 2.5
      vertex 0.816958 -1.25801 2.5
    endloop
  endfacet
  facet normal 0.566407 -0.824126 0
    outer loop
      vertex 0.881678 -1.21352 2.5
      vertex 0.816958 -1.25801 1.5
      vertex 0.881678 -1.21352 1.5
    endloop
  endfacet
  facet normal 0.878815 -0.477163 0
    outer loop
      vertex 1.29904 -0.749999 2.5
      vertex 1.33651 -0.680985 1.5
      vertex 1.33651 -0.680985 2.5
    endloop
  endfacet
  facet normal 0.878815 -0.477163 0
    outer loop
      vertex 1.33651 -0.680985 1.5
      vertex 1.29904 -0.749999 2.5
      vertex 1.29904 -0.749999 1.5
    endloop
  endfacet
  facet normal 0.793352 -0.608764 0
    outer loop
      vertex 1.16572 -0.94398 2.5
      vertex 1.21352 -0.881678 1.5
      vertex 1.21352 -0.881678 2.5
    endloop
  endfacet
  facet normal 0.793352 -0.608764 0
    outer loop
      vertex 1.21352 -0.881678 1.5
      vertex 1.16572 -0.94398 2.5
      vertex 1.16572 -0.94398 1.5
    endloop
  endfacet
  facet normal -0.233453 -0.972368 0
    outer loop
      vertex -0.388228 -1.44889 1.5
      vertex -0.311867 -1.46722 2.5
      vertex -0.388228 -1.44889 2.5
    endloop
  endfacet
  facet normal -0.233453 -0.972368 -0
    outer loop
      vertex -0.311867 -1.46722 2.5
      vertex -0.388228 -1.44889 1.5
      vertex -0.311867 -1.46722 1.5
    endloop
  endfacet
  facet normal -0.0261825 -0.999657 0
    outer loop
      vertex -0.0785036 -1.49794 1.5
      vertex 0 -1.5 2.5
      vertex -0.0785036 -1.49794 2.5
    endloop
  endfacet
  facet normal -0.0261825 -0.999657 -0
    outer loop
      vertex 0 -1.5 2.5
      vertex -0.0785036 -1.49794 1.5
      vertex 0 -1.5 1.5
    endloop
  endfacet
  facet normal -0.130523 -0.991445 0
    outer loop
      vertex -0.234652 -1.48153 1.5
      vertex -0.156793 -1.49178 2.5
      vertex -0.234652 -1.48153 2.5
    endloop
  endfacet
  facet normal -0.130523 -0.991445 -0
    outer loop
      vertex -0.156793 -1.49178 2.5
      vertex -0.234652 -1.48153 1.5
      vertex -0.156793 -1.49178 1.5
    endloop
  endfacet
  facet normal -0.566407 -0.824126 0
    outer loop
      vertex -0.881678 -1.21352 1.5
      vertex -0.816958 -1.25801 2.5
      vertex -0.881678 -1.21352 2.5
    endloop
  endfacet
  facet normal -0.566407 -0.824126 -0
    outer loop
      vertex -0.816958 -1.25801 2.5
      vertex -0.881678 -1.21352 1.5
      vertex -0.816958 -1.25801 1.5
    endloop
  endfacet
  facet normal -0.649447 -0.760407 0
    outer loop
      vertex -1.0037 -1.11472 1.5
      vertex -0.94398 -1.16572 2.5
      vertex -1.0037 -1.11472 2.5
    endloop
  endfacet
  facet normal -0.649447 -0.760407 -0
    outer loop
      vertex -0.94398 -1.16572 2.5
      vertex -1.0037 -1.11472 1.5
      vertex -0.94398 -1.16572 1.5
    endloop
  endfacet
  facet normal -0.477158 -0.878817 0
    outer loop
      vertex -0.75 -1.29904 1.5
      vertex -0.680985 -1.33651 2.5
      vertex -0.75 -1.29904 2.5
    endloop
  endfacet
  facet normal -0.477158 -0.878817 -0
    outer loop
      vertex -0.680985 -1.33651 2.5
      vertex -0.75 -1.29904 1.5
      vertex -0.680985 -1.33651 1.5
    endloop
  endfacet
  facet normal -0.382693 -0.923876 0
    outer loop
      vertex -0.610105 -1.37032 1.5
      vertex -0.537552 -1.40037 2.5
      vertex -0.610105 -1.37032 2.5
    endloop
  endfacet
  facet normal -0.382693 -0.923876 -0
    outer loop
      vertex -0.537552 -1.40037 2.5
      vertex -0.610105 -1.37032 1.5
      vertex -0.537552 -1.40037 1.5
    endloop
  endfacet
  facet normal -0.983255 -0.182234 0
    outer loop
      vertex -1.46722 -0.311867 1.5
      vertex -1.48153 -0.234652 2.5
      vertex -1.48153 -0.234652 1.5
    endloop
  endfacet
  facet normal -0.983255 -0.182234 0
    outer loop
      vertex -1.48153 -0.234652 2.5
      vertex -1.46722 -0.311867 1.5
      vertex -1.46722 -0.311867 2.5
    endloop
  endfacet
  facet normal -0.996917 -0.0784617 0
    outer loop
      vertex -1.49178 -0.156793 1.5
      vertex -1.49794 -0.0785036 2.5
      vertex -1.49794 -0.0785036 1.5
    endloop
  endfacet
  facet normal -0.996917 -0.0784617 0
    outer loop
      vertex -1.49794 -0.0785036 2.5
      vertex -1.49178 -0.156793 1.5
      vertex -1.49178 -0.156793 2.5
    endloop
  endfacet
  facet normal -0.958821 -0.284013 0
    outer loop
      vertex -1.42658 -0.463525 1.5
      vertex -1.44889 -0.388228 2.5
      vertex -1.44889 -0.388228 1.5
    endloop
  endfacet
  facet normal -0.958821 -0.284013 0
    outer loop
      vertex -1.44889 -0.388228 2.5
      vertex -1.42658 -0.463525 1.5
      vertex -1.42658 -0.463525 2.5
    endloop
  endfacet
  facet normal -0.902589 -0.430504 0
    outer loop
      vertex -1.33651 -0.680985 1.5
      vertex -1.37032 -0.610105 2.5
      vertex -1.37032 -0.610105 1.5
    endloop
  endfacet
  facet normal -0.902589 -0.430504 0
    outer loop
      vertex -1.37032 -0.610105 2.5
      vertex -1.33651 -0.680985 1.5
      vertex -1.33651 -0.680985 2.5
    endloop
  endfacet
  facet normal -0.85264 -0.522499 0
    outer loop
      vertex -1.25801 -0.816958 1.5
      vertex -1.29904 -0.749999 2.5
      vertex -1.29904 -0.749999 1.5
    endloop
  endfacet
  facet normal -0.85264 -0.522499 0
    outer loop
      vertex -1.29904 -0.749999 2.5
      vertex -1.25801 -0.816958 1.5
      vertex -1.25801 -0.816958 2.5
    endloop
  endfacet
  facet normal -0.793352 -0.608764 0
    outer loop
      vertex -1.16572 -0.94398 1.5
      vertex -1.21352 -0.881678 2.5
      vertex -1.21352 -0.881678 1.5
    endloop
  endfacet
  facet normal -0.793352 -0.608764 0
    outer loop
      vertex -1.21352 -0.881678 2.5
      vertex -1.16572 -0.94398 1.5
      vertex -1.16572 -0.94398 2.5
    endloop
  endfacet
  facet normal -0.725372 -0.688357 0
    outer loop
      vertex -1.06066 -1.06066 1.5
      vertex -1.11472 -1.0037 2.5
      vertex -1.11472 -1.0037 1.5
    endloop
  endfacet
  facet normal -0.725372 -0.688357 0
    outer loop
      vertex -1.11472 -1.0037 2.5
      vertex -1.06066 -1.06066 1.5
      vertex -1.06066 -1.06066 2.5
    endloop
  endfacet
endsolid OpenSCAD_Model
