solid OpenSCAD_Model
  facet normal -1 0 0
    outer loop
      vertex -2.5 -2.5 1.4
      vertex -2.5 -1.5 1.5
      vertex -2.5 -1.5 0
    endloop
  endfacet
  facet normal -1 -0 0
    outer loop
      vertex -2.5 -1.5 1.5
      vertex -2.5 -2.5 1.4
      vertex -2.5 -2.5 1.5
    endloop
  endfacet
  facet normal -1 0 0
    outer loop
      vertex -2.5 1.5 1.5
      vertex -2.5 2.5 1.4
      vertex -2.5 1.5 0
    endloop
  endfacet
  facet normal -1 0 0
    outer loop
      vertex -2.5 2.5 1.4
      vertex -2.5 1.5 1.5
      vertex -2.5 2.5 1.5
    endloop
  endfacet
  facet normal -1 0 0
    outer loop
      vertex -2.5 -1.5 1.5
      vertex -2.5 1.5 1.5
      vertex -2.5 1.5 0
    endloop
  endfacet
  facet normal -1 0 0
    outer loop
      vertex -2.5 -1.5 1.5
      vertex -2.5 1.5 0
      vertex -2.5 -1.5 0
    endloop
  endfacet
  facet normal -1 0 0
    outer loop
      vertex -2.5 10 2.75
      vertex -2.5 7.5 5.25
      vertex -2.5 10 22.75
    endloop
  endfacet
  facet normal -1 0 0
    outer loop
      vertex -2.5 1.5 2.75
      vertex -2.5 7.5 5.25
      vertex -2.5 10 2.75
    endloop
  endfacet
  facet normal -1 0 0
    outer loop
      vertex -2.5 1.5 1.5
      vertex -2.5 -1.5 1.5
      vertex -2.5 1.5 2.75
    endloop
  endfacet
  facet normal -1 0 0
    outer loop
      vertex -2.5 -1.5 2.75
      vertex -2.5 1.5 2.75
      vertex -2.5 -1.5 1.5
    endloop
  endfacet
  facet normal -1 0 0
    outer loop
      vertex -2.5 1.5 2.75
      vertex -2.5 -1.5 2.75
      vertex -2.5 7.5 5.25
    endloop
  endfacet
  facet normal -1 0 0
    outer loop
      vertex -2.5 -1.5 2.75
      vertex -2.5 -7.5 5.25
      vertex -2.5 7.5 5.25
    endloop
  endfacet
  facet normal -1 -0 0
    outer loop
      vertex -2.5 -7.5 5.25
      vertex -2.5 -10 2.75
      vertex -2.5 -7.5 20.25
    endloop
  endfacet
  facet normal -1 0 0
    outer loop
      vertex -2.5 -10 2.75
      vertex -2.5 -7.5 5.25
      vertex -2.5 -1.5 2.75
    endloop
  endfacet
  facet normal -1 0 0
    outer loop
      vertex -2.5 7.5 20.25
      vertex -2.5 10 22.75
      vertex -2.5 7.5 5.25
    endloop
  endfacet
  facet normal -1 0 0
    outer loop
      vertex -2.5 1.5 22.75
      vertex -2.5 7.5 20.25
      vertex -2.5 1.5 20.25
    endloop
  endfacet
  facet normal -1 0 0
    outer loop
      vertex -2.5 7.5 20.25
      vertex -2.5 1.5 22.75
      vertex -2.5 10 22.75
    endloop
  endfacet
  facet normal -1 0 0
    outer loop
      vertex -2.5 -7.5 20.25
      vertex -2.5 -1.5 22.75
      vertex -2.5 -1.5 20.25
    endloop
  endfacet
  facet normal -1 0 0
    outer loop
      vertex -2.5 -7.5 20.25
      vertex -2.5 -10 22.75
      vertex -2.5 -1.5 22.75
    endloop
  endfacet
  facet normal -1 0 0
    outer loop
      vertex -2.5 -10 22.75
      vertex -2.5 -7.5 20.25
      vertex -2.5 -10 2.75
    endloop
  endfacet
  facet normal -0 0 1
    outer loop
      vertex -2.5 -1.5 22.75
      vertex 2.5 -10 22.75
      vertex 2.5 -1.5 22.75
    endloop
  endfacet
  facet normal 0 0 1
    outer loop
      vertex 2.5 -10 22.75
      vertex -2.5 -1.5 22.75
      vertex -2.5 -10 22.75
    endloop
  endfacet
  facet normal -0 0 1
    outer loop
      vertex -2.5 10 22.75
      vertex 2.5 1.5 22.75
      vertex 2.5 10 22.75
    endloop
  endfacet
  facet normal 0 0 1
    outer loop
      vertex 2.5 1.5 22.75
      vertex -2.5 10 22.75
      vertex -2.5 1.5 22.75
    endloop
  endfacet
  facet normal 1 0 0
    outer loop
      vertex 2.5 -1.5 22.75
      vertex 2.5 -7.5 20.25
      vertex 2.5 -1.5 20.25
    endloop
  endfacet
  facet normal 1 0 0
    outer loop
      vertex 2.5 -7.5 20.25
      vertex 2.5 -10 22.75
      vertex 2.5 -7.5 5.25
    endloop
  endfacet
  facet normal 1 -0 0
    outer loop
      vertex 2.5 -10 22.75
      vertex 2.5 -7.5 20.25
      vertex 2.5 -1.5 22.75
    endloop
  endfacet
  facet normal 1 0 0
    outer loop
      vertex 2.5 10 22.75
      vertex 2.5 7.5 20.25
      vertex 2.5 10 2.75
    endloop
  endfacet
  facet normal 1 -0 0
    outer loop
      vertex 2.5 1.5 22.75
      vertex 2.5 7.5 20.25
      vertex 2.5 10 22.75
    endloop
  endfacet
  facet normal 1 0 0
    outer loop
      vertex 2.5 7.5 20.25
      vertex 2.5 1.5 22.75
      vertex 2.5 1.5 20.25
    endloop
  endfacet
  facet normal 1 -0 0
    outer loop
      vertex 2.5 7.5 5.25
      vertex 2.5 10 2.75
      vertex 2.5 7.5 20.25
    endloop
  endfacet
  facet normal 1 0 0
    outer loop
      vertex 2.5 7.5 5.25
      vertex 2.5 1.5 2.75
      vertex 2.5 10 2.75
    endloop
  endfacet
  facet normal 1 0 0
    outer loop
      vertex 2.5 -1.5 1.5
      vertex 2.5 1.5 1.5
      vertex 2.5 1.5 2.75
    endloop
  endfacet
  facet normal 1 0 0
    outer loop
      vertex 2.5 -1.5 1.5
      vertex 2.5 1.5 2.75
      vertex 2.5 -1.5 2.75
    endloop
  endfacet
  facet normal 1 0 0
    outer loop
      vertex 2.5 7.5 5.25
      vertex 2.5 -1.5 2.75
      vertex 2.5 1.5 2.75
    endloop
  endfacet
  facet normal 1 -0 0
    outer loop
      vertex 2.5 -7.5 5.25
      vertex 2.5 -1.5 2.75
      vertex 2.5 7.5 5.25
    endloop
  endfacet
  facet normal 1 0 0
    outer loop
      vertex 2.5 -7.5 5.25
      vertex 2.5 -10 2.75
      vertex 2.5 -1.5 2.75
    endloop
  endfacet
  facet normal 1 0 0
    outer loop
      vertex 2.5 -10 2.75
      vertex 2.5 -7.5 5.25
      vertex 2.5 -10 22.75
    endloop
  endfacet
  facet normal 1 -0 0
    outer loop
      vertex 2.5 1.5 1.5
      vertex 2.5 2.5 1.4
      vertex 2.5 2.5 1.5
    endloop
  endfacet
  facet normal 1 0 0
    outer loop
      vertex 2.5 2.5 1.4
      vertex 2.5 1.5 1.5
      vertex 2.5 1.5 0
    endloop
  endfacet
  facet normal 1 0 0
    outer loop
      vertex 2.5 1.5 1.5
      vertex 2.5 -1.5 1.5
      vertex 2.5 1.5 0
    endloop
  endfacet
  facet normal 1 0 0
    outer loop
      vertex 2.5 -1.5 1.5
      vertex 2.5 -1.5 0
      vertex 2.5 1.5 0
    endloop
  endfacet
  facet normal 1 0 0
    outer loop
      vertex 2.5 -2.5 1.4
      vertex 2.5 -1.5 1.5
      vertex 2.5 -2.5 1.5
    endloop
  endfacet
  facet normal 1 0 0
    outer loop
      vertex 2.5 -1.5 1.5
      vertex 2.5 -2.5 1.4
      vertex 2.5 -1.5 0
    endloop
  endfacet
  facet normal 0 1 -0
    outer loop
      vertex 2.5 10 2.75
      vertex -2.5 10 22.75
      vertex 2.5 10 22.75
    endloop
  endfacet
  facet normal 0 1 0
    outer loop
      vertex -2.5 10 22.75
      vertex 2.5 10 2.75
      vertex -2.5 10 2.75
    endloop
  endfacet
  facet normal 0 0 -1
    outer loop
      vertex -2.5 1.5 2.75
      vertex 2.5 10 2.75
      vertex 2.5 1.5 2.75
    endloop
  endfacet
  facet normal -0 0 -1
    outer loop
      vertex 2.5 10 2.75
      vertex -2.5 1.5 2.75
      vertex -2.5 10 2.75
    endloop
  endfacet
  facet normal 0 0 -1
    outer loop
      vertex -2.5 -10 2.75
      vertex 2.5 -1.5 2.75
      vertex 2.5 -10 2.75
    endloop
  endfacet
  facet normal -0 0 -1
    outer loop
      vertex 2.5 -1.5 2.75
      vertex -2.5 -10 2.75
      vertex -2.5 -1.5 2.75
    endloop
  endfacet
  facet normal 0 -1 0
    outer loop
      vertex -2.5 -10 2.75
      vertex 2.5 -10 22.75
      vertex -2.5 -10 22.75
    endloop
  endfacet
  facet normal 0 -1 -0
    outer loop
      vertex 2.5 -10 22.75
      vertex -2.5 -10 2.75
      vertex 2.5 -10 2.75
    endloop
  endfacet
  facet normal 0 0 -1
    outer loop
      vertex -2.5 -7.5 20.25
      vertex 2.5 -1.5 20.25
      vertex 2.5 -7.5 20.25
    endloop
  endfacet
  facet normal -0 0 -1
    outer loop
      vertex 2.5 -1.5 20.25
      vertex -2.5 -7.5 20.25
      vertex -2.5 -1.5 20.25
    endloop
  endfacet
  facet normal 0 0 -1
    outer loop
      vertex -2.5 1.5 20.25
      vertex 2.5 7.5 20.25
      vertex 2.5 1.5 20.25
    endloop
  endfacet
  facet normal -0 0 -1
    outer loop
      vertex 2.5 7.5 20.25
      vertex -2.5 1.5 20.25
      vertex -2.5 7.5 20.25
    endloop
  endfacet
  facet normal -0 0 1
    outer loop
      vertex -2.5 7.5 5.25
      vertex 2.5 -7.5 5.25
      vertex 2.5 7.5 5.25
    endloop
  endfacet
  facet normal 0 0 1
    outer loop
      vertex 2.5 -7.5 5.25
      vertex -2.5 7.5 5.25
      vertex -2.5 -7.5 5.25
    endloop
  endfacet
  facet normal 0 1 -0
    outer loop
      vertex 2.5 -7.5 5.25
      vertex -2.5 -7.5 20.25
      vertex 2.5 -7.5 20.25
    endloop
  endfacet
  facet normal 0 1 0
    outer loop
      vertex -2.5 -7.5 20.25
      vertex 2.5 -7.5 5.25
      vertex -2.5 -7.5 5.25
    endloop
  endfacet
  facet normal 0 -1 0
    outer loop
      vertex -2.5 7.5 5.25
      vertex 2.5 7.5 20.25
      vertex -2.5 7.5 20.25
    endloop
  endfacet
  facet normal 0 -1 -0
    outer loop
      vertex 2.5 7.5 20.25
      vertex -2.5 7.5 5.25
      vertex 2.5 7.5 5.25
    endloop
  endfacet
  facet normal 0 -0.813733 -0.581238
    outer loop
      vertex -2.5 -1.5 0
      vertex 2.5 -2.5 1.4
      vertex -2.5 -2.5 1.4
    endloop
  endfacet
  facet normal 0 -0.813733 -0.581238
    outer loop
      vertex 2.5 -2.5 1.4
      vertex -2.5 -1.5 0
      vertex 2.5 -1.5 0
    endloop
  endfacet
  facet normal -0 0 1
    outer loop
      vertex -2.5 2.5 1.5
      vertex 2.5 1.5 1.5
      vertex 2.5 2.5 1.5
    endloop
  endfacet
  facet normal 0 0 1
    outer loop
      vertex 2.5 1.5 1.5
      vertex -2.5 2.5 1.5
      vertex -2.5 1.5 1.5
    endloop
  endfacet
  facet normal -0 0 1
    outer loop
      vertex -2.5 -1.5 1.5
      vertex 2.5 -2.5 1.5
      vertex 2.5 -1.5 1.5
    endloop
  endfacet
  facet normal 0 0 1
    outer loop
      vertex 2.5 -2.5 1.5
      vertex -2.5 -1.5 1.5
      vertex -2.5 -2.5 1.5
    endloop
  endfacet
  facet normal 0 0 -1
    outer loop
      vertex -2.5 -1.5 0
      vertex 2.5 1.5 0
      vertex 2.5 -1.5 0
    endloop
  endfacet
  facet normal -0 0 -1
    outer loop
      vertex 2.5 1.5 0
      vertex -2.5 -1.5 0
      vertex -2.5 1.5 0
    endloop
  endfacet
  facet normal 0 0.813733 -0.581238
    outer loop
      vertex 2.5 1.5 0
      vertex -2.5 2.5 1.4
      vertex 2.5 2.5 1.4
    endloop
  endfacet
  facet normal 0 0.813733 -0.581238
    outer loop
      vertex -2.5 2.5 1.4
      vertex 2.5 1.5 0
      vertex -2.5 1.5 0
    endloop
  endfacet
  facet normal 0 1 -0
    outer loop
      vertex 2.5 2.5 1.4
      vertex -2.5 2.5 1.5
      vertex 2.5 2.5 1.5
    endloop
  endfacet
  facet normal 0 1 0
    outer loop
      vertex -2.5 2.5 1.5
      vertex 2.5 2.5 1.4
      vertex -2.5 2.5 1.4
    endloop
  endfacet
  facet normal 0 -1 0
    outer loop
      vertex -2.5 -2.5 1.4
      vertex 2.5 -2.5 1.5
      vertex -2.5 -2.5 1.5
    endloop
  endfacet
  facet normal 0 -1 -0
    outer loop
      vertex 2.5 -2.5 1.5
      vertex -2.5 -2.5 1.4
      vertex 2.5 -2.5 1.4
    endloop
  endfacet
  facet normal 0 1 -0
    outer loop
      vertex 2.5 1.5 1.5
      vertex -2.5 1.5 2.75
      vertex 2.5 1.5 2.75
    endloop
  endfacet
  facet normal 0 1 0
    outer loop
      vertex -2.5 1.5 2.75
      vertex 2.5 1.5 1.5
      vertex -2.5 1.5 1.5
    endloop
  endfacet
  facet normal 0 -1 0
    outer loop
      vertex -2.5 -1.5 1.5
      vertex 2.5 -1.5 2.75
      vertex -2.5 -1.5 2.75
    endloop
  endfacet
  facet normal 0 -1 -0
    outer loop
      vertex 2.5 -1.5 2.75
      vertex -2.5 -1.5 1.5
      vertex 2.5 -1.5 1.5
    endloop
  endfacet
  facet normal 0 1 -0
    outer loop
      vertex 2.5 -1.5 20.25
      vertex -2.5 -1.5 22.75
      vertex 2.5 -1.5 22.75
    endloop
  endfacet
  facet normal 0 1 0
    outer loop
      vertex -2.5 -1.5 22.75
      vertex 2.5 -1.5 20.25
      vertex -2.5 -1.5 20.25
    endloop
  endfacet
  facet normal 0 -1 0
    outer loop
      vertex -2.5 1.5 20.25
      vertex 2.5 1.5 22.75
      vertex -2.5 1.5 22.75
    endloop
  endfacet
  facet normal 0 -1 -0
    outer loop
      vertex 2.5 1.5 22.75
      vertex -2.5 1.5 20.25
      vertex 2.5 1.5 20.25
    endloop
  endfacet
endsolid OpenSCAD_Model
